<svg width="16" height="20" viewBox="0 0 16 20" fill="none" xmlns="http://www.w3.org/2000/svg">
<path d="M13.7549 12C14.3513 12.0005 14.9231 12.2378 15.3446 12.6597C15.7661 13.0816 16.0029 13.6536 16.0029 14.25V14.825C16.0029 15.719 15.6829 16.584 15.1029 17.263C13.5329 19.096 11.1459 20.001 7.99991 20.001C4.85391 20.001 2.46791 19.096 0.901906 17.261C0.322514 16.5824 0.0041135 15.7193 0.00390625 14.827V14.249C0.00417125 13.6526 0.241204 13.0807 0.662916 12.659C1.08463 12.2373 1.65652 12.0003 2.25291 12H13.7549ZM13.7549 13.5H2.25191C2.05299 13.5 1.86223 13.579 1.72158 13.7197C1.58092 13.8603 1.50191 14.0511 1.50191 14.25V14.827C1.50191 15.362 1.69391 15.88 2.04191 16.287C3.29491 17.756 5.26191 18.501 7.99891 18.501C10.7379 18.501 12.7049 17.756 13.9619 16.288C14.3106 15.8803 14.5021 15.3615 14.5019 14.825V14.249C14.5016 14.0506 14.4228 13.8604 14.2826 13.72C14.1424 13.5796 13.9533 13.5005 13.7549 13.5ZM7.99991 0.00500488C8.65652 0.00500487 9.30669 0.134333 9.91332 0.385607C10.52 0.636881 11.0711 1.00518 11.5354 1.46947C11.9997 1.93376 12.368 2.48496 12.6193 3.09159C12.8706 3.69822 12.9999 4.3484 12.9999 5.005C12.9999 5.66161 12.8706 6.31179 12.6193 6.91842C12.368 7.52505 11.9997 8.07625 11.5354 8.54054C11.0711 9.00483 10.52 9.37313 9.91332 9.6244C9.30669 9.87568 8.65652 10.005 7.99991 10.005C6.67382 10.005 5.40205 9.47822 4.46437 8.54054C3.52669 7.60286 2.99991 6.33109 2.99991 5.005C2.99991 3.67892 3.52669 2.40715 4.46437 1.46947C5.40205 0.531789 6.67382 0.00500488 7.99991 0.00500488ZM7.99991 1.505C7.54028 1.505 7.08515 1.59554 6.66051 1.77143C6.23587 1.94732 5.85004 2.20513 5.52503 2.53013C5.20003 2.85514 4.94222 3.24097 4.76633 3.66561C4.59044 4.09025 4.49991 4.54538 4.49991 5.005C4.49991 5.46463 4.59044 5.91976 4.76633 6.3444C4.94222 6.76904 5.20003 7.15487 5.52503 7.47988C5.85004 7.80488 6.23587 8.06269 6.66051 8.23858C7.08515 8.41448 7.54028 8.505 7.99991 8.505C8.92816 8.505 9.8184 8.13626 10.4748 7.47988C11.1312 6.8235 11.4999 5.93326 11.4999 5.005C11.4999 4.07675 11.1312 3.18651 10.4748 2.53013C9.8184 1.87375 8.92816 1.505 7.99991 1.505Z" fill="black"/>
</svg>
