<svg width="22" height="22" viewBox="0 0 22 22" fill="none" xmlns="http://www.w3.org/2000/svg">
<path d="M10.973 15.8125C10.7929 15.8135 10.6144 15.7789 10.4476 15.7105C10.2809 15.6421 10.1293 15.5413 10.0014 15.414L4.52746 9.91776C4.39986 9.78965 4.29865 9.63755 4.2296 9.47016C4.16054 9.30277 4.125 9.12336 4.125 8.94218C4.125 8.761 4.16054 8.58159 4.2296 8.4142C4.29865 8.24681 4.39986 8.09471 4.52746 7.9666C4.65505 7.83848 4.80653 7.73686 4.97324 7.66752C5.13995 7.59819 5.31863 7.5625 5.49908 7.5625C5.67953 7.5625 5.85821 7.59819 6.02492 7.66752C6.19163 7.73686 6.34311 7.83848 6.4707 7.9666L10.973 12.5147L15.489 8.14523C15.6149 8.00467 15.7683 7.89171 15.9396 7.81341C16.111 7.73511 16.2966 7.69315 16.4848 7.69016C16.6731 7.68716 16.8599 7.7232 17.0336 7.79601C17.2074 7.86882 17.3643 7.97685 17.4945 8.11332C17.6248 8.2498 17.7256 8.4118 17.7907 8.58918C17.8557 8.76656 17.8837 8.95552 17.8727 9.14423C17.8617 9.33293 17.812 9.51734 17.7268 9.6859C17.6416 9.85446 17.5227 10.0036 17.3775 10.1239L11.9036 15.4277C11.6533 15.67 11.3206 15.8076 10.973 15.8125Z" fill="#191F2A"/>
</svg>
