<svg width="32" height="24" viewBox="0 0 32 24" fill="none" xmlns="http://www.w3.org/2000/svg">
<rect y="0.571487" width="32" height="22.8571" rx="4" fill="#0060AF"/>
<path fill-rule="evenodd" clip-rule="evenodd" d="M6.58178 14.1903C6.58178 13.8835 6.58531 13.0635 6.57729 12.9625C6.58428 11.7424 5.64321 10.8817 5.04868 10.9488C4.63729 10.9825 4.29243 11.1406 4.10738 11.5955C3.93573 12.0195 4.0892 12.5834 4.65966 12.7157C5.26958 12.8578 5.62584 12.976 5.88361 13.1428C6.19946 13.3471 6.45731 13.7372 6.46416 14.1907" fill="white"/>
<path fill-rule="evenodd" clip-rule="evenodd" d="M6.32632 14.1907C6.32831 13.7975 6.09549 13.4498 5.7912 13.2629C5.52128 13.0978 5.15891 12.9893 4.57431 12.8495C4.39361 12.8059 4.20458 12.7091 4.14606 12.5858C3.99127 12.7328 3.96315 13.0634 3.99038 13.2566C4.02203 13.4801 4.29917 13.8486 4.71645 13.863C4.97128 13.8726 5.29346 13.8113 5.44796 13.7803C5.7145 13.7261 6.1362 13.8835 6.20333 14.1902" fill="white"/>
<path fill-rule="evenodd" clip-rule="evenodd" d="M6.79684 9.04736C6.08925 9.04736 5.47816 9.48721 5.48029 10.2483C5.4825 10.8884 6.02852 11.231 6.22344 11.4757C6.51787 11.8445 6.67723 12.281 6.69372 12.949C6.70667 13.4805 6.70601 14.0055 6.70888 14.1915H6.865C6.86235 13.9969 6.85528 13.4396 6.86331 12.9325C6.87391 12.2644 7.03901 11.8445 7.33359 11.4757C7.53019 11.231 8.0757 10.8884 8.07688 10.2483C8.0796 9.48721 7.46873 9.04736 6.76188 9.04736" fill="white"/>
<path fill-rule="evenodd" clip-rule="evenodd" d="M6.97669 14.1903C6.97669 13.8835 6.97301 13.0635 6.98088 12.9625C6.97397 11.7424 7.91445 10.8817 8.5095 10.9488C8.92089 10.9825 9.2653 11.1406 9.45094 11.5955C9.62237 12.0195 9.46809 12.5834 8.89837 12.7157C8.28801 12.8578 7.93226 12.976 7.67383 13.1428C7.35835 13.3471 7.11853 13.7372 7.11117 14.1907" fill="white"/>
<path fill-rule="evenodd" clip-rule="evenodd" d="M7.23122 14.1907C7.22901 13.7975 7.46176 13.4498 7.76517 13.2629C8.03626 13.0978 8.399 12.9893 8.98308 12.8495C9.16416 12.8059 9.35296 12.7091 9.41045 12.5858C9.56598 12.7328 9.5941 13.0634 9.56679 13.2566C9.53455 13.4801 9.25808 13.8486 8.84153 13.863C8.58685 13.8726 8.2629 13.8113 8.10906 13.7803C7.84356 13.7261 7.42068 13.8835 7.35326 14.1902" fill="white"/>
<path fill-rule="evenodd" clip-rule="evenodd" d="M7.44935 15.4602L7.35889 14.8374L7.57743 14.8062C7.63057 14.7994 7.69535 14.8082 7.72126 14.8395C7.74989 14.8724 7.75865 14.8995 7.76417 14.9425C7.77249 14.9958 7.75615 15.0573 7.69255 15.0879V15.0898C7.76351 15.0898 7.80642 15.1379 7.81893 15.2191C7.8207 15.2363 7.82615 15.2776 7.8207 15.3122C7.80627 15.3944 7.75431 15.4209 7.66642 15.4325L7.44935 15.4602ZM7.59042 15.3489C7.61633 15.3453 7.64261 15.344 7.66314 15.3316C7.69465 15.3123 7.69178 15.2709 7.68736 15.2401C7.67646 15.1726 7.65777 15.1469 7.58173 15.1575L7.53389 15.1644L7.56421 15.3523L7.59042 15.3489ZM7.54409 15.0609C7.57302 15.0566 7.61218 15.0532 7.62852 15.0274C7.63713 15.0101 7.64803 14.9963 7.64081 14.9579C7.63191 14.9124 7.61593 14.8841 7.55447 14.895L7.49728 14.9037L7.51988 15.0633L7.54409 15.0609Z" fill="white"/>
<path fill-rule="evenodd" clip-rule="evenodd" d="M8.3961 15.0858C8.39779 15.0974 8.39978 15.1103 8.40051 15.1219C8.41818 15.2354 8.3961 15.3295 8.26066 15.3553C8.06037 15.3916 8.02202 15.2744 7.98684 15.1103L7.96807 15.0214C7.94047 14.8644 7.92862 14.7454 8.12382 14.7087C8.23387 14.6898 8.30659 14.7311 8.33684 14.8344C8.34156 14.8498 8.34744 14.865 8.34965 14.8805L8.22989 14.9038C8.21605 14.865 8.19773 14.7957 8.14384 14.8015C8.04712 14.8125 8.07907 14.9259 8.08901 14.9734L8.125 15.1438C8.13582 15.1954 8.15732 15.2778 8.24101 15.2619C8.30895 15.249 8.27928 15.1493 8.27325 15.1083" fill="white"/>
<path fill-rule="evenodd" clip-rule="evenodd" d="M8.58861 15.2741L8.54724 14.6296L8.70807 14.5833L9.04542 15.1438L8.91874 15.1796L8.8388 15.0371L8.69814 15.0769L8.71632 15.2389L8.58861 15.2741ZM8.68594 14.9729L8.7876 14.9452L8.6526 14.6844L8.68594 14.9729Z" fill="white"/>
<path fill-rule="evenodd" clip-rule="evenodd" d="M4.61448 14.7868C4.66483 14.6349 4.70988 14.523 4.90207 14.5727C5.0049 14.5998 5.06864 14.6425 5.06562 14.7551C5.06511 14.7802 5.05635 14.8058 5.05061 14.8305L4.931 14.7994C4.94667 14.7371 4.95661 14.6878 4.87535 14.6642C4.78142 14.6399 4.75853 14.7473 4.74558 14.7937L4.69692 14.9626C4.68147 15.0128 4.66292 15.0957 4.74558 15.1171C4.81389 15.1344 4.85525 15.0713 4.87999 14.979L4.79637 14.958L4.82529 14.8603L5.02205 14.9199L4.92864 15.2456L4.8381 15.2224L4.85849 15.1535H4.85592C4.81418 15.2099 4.76339 15.2158 4.71886 15.2077C4.5221 15.1576 4.54264 15.0363 4.5896 14.8744" fill="white"/>
<path fill-rule="evenodd" clip-rule="evenodd" d="M5.34705 15.0619L5.2878 15.3268L5.15442 15.2997L5.29656 14.6811L5.52393 14.7294C5.65701 14.7566 5.6972 14.8124 5.67836 14.9274C5.66761 14.9934 5.63309 15.0644 5.54881 15.0587L5.54793 15.0576C5.61918 15.0811 5.62521 15.115 5.61277 15.1735C5.6074 15.1985 5.57038 15.3496 5.59592 15.3741L5.5968 15.3926L5.45879 15.3586C5.45305 15.3168 5.47263 15.2415 5.48035 15.1997C5.48808 15.1628 5.50052 15.1107 5.46077 15.0912C5.42971 15.0755 5.41808 15.0763 5.3829 15.0687L5.34705 15.0619ZM5.3696 14.9661L5.4594 14.9889C5.51394 14.9964 5.54427 14.9698 5.55502 14.9076C5.56473 14.8506 5.55214 14.8284 5.5032 14.8174L5.40692 14.7989L5.3696 14.9661Z" fill="white"/>
<path fill-rule="evenodd" clip-rule="evenodd" d="M6.20241 14.8193L6.33431 14.8337L6.27749 15.2686C6.24989 15.4065 6.19336 15.4667 6.03245 15.4479C5.86875 15.4284 5.82988 15.3581 5.83974 15.2192L5.89701 14.7846L6.02995 14.7989L5.9729 15.2237C5.96679 15.2699 5.95553 15.3382 6.04253 15.3465C6.11975 15.3521 6.13727 15.3038 6.14603 15.2439" fill="white"/>
<path fill-rule="evenodd" clip-rule="evenodd" d="M6.47943 15.4717L6.51918 14.8498L6.77254 14.8602C6.89237 14.8658 6.92365 14.958 6.91997 15.0459C6.91644 15.0994 6.89877 15.1592 6.84931 15.1916C6.80875 15.2191 6.75656 15.2256 6.70828 15.2234L6.62569 15.2191L6.6092 15.4797L6.47943 15.4717ZM6.62943 15.1243L6.69656 15.1279C6.7511 15.1298 6.78725 15.1094 6.79196 15.0339C6.79468 14.9615 6.76553 14.9491 6.69487 14.9462L6.64172 14.9445L6.62943 15.1243Z" fill="white"/>
<path fill-rule="evenodd" clip-rule="evenodd" d="M24.3533 9.64824L23.3461 11.3717C22.9659 11.0806 22.5017 10.8665 21.9094 10.8665C20.5077 10.8665 19.9382 11.8514 19.9382 12.5452C19.9382 13.0602 20.296 13.82 21.5432 13.82C22.0668 13.82 22.8109 13.4768 23.0251 13.3205L22.029 15.32C21.5542 15.4093 21.3981 15.4647 20.9962 15.4764C18.7638 15.5392 17.8618 14.2464 17.8624 12.9256C17.864 11.1793 19.5109 9.0556 22.2412 9.0556C22.4084 9.0556 22.6131 9.1102 22.788 9.17064L22.9649 8.95741" fill="white"/>
<path fill-rule="evenodd" clip-rule="evenodd" d="M28.5101 9.01165L28.7953 15.2754H26.6726L26.6715 14.2012H25.224L24.7477 15.2754H22.4455L24.8523 10.8025L24.3096 10.7992L25.3407 9.01165H28.5101ZM26.6575 10.9279L25.8392 12.7499H26.6823L26.6575 10.9279Z" fill="white"/>
<path fill-rule="evenodd" clip-rule="evenodd" d="M16.5226 9.01167C17.5738 9.01722 18.1678 9.55511 18.1678 10.332C18.1678 11.0484 17.5414 11.6824 16.8536 12.0103C17.5617 12.2557 17.6229 12.858 17.6229 13.284C17.6229 14.3135 16.5272 15.2754 15.1028 15.2754H11.9963L13.2081 10.8649L12.7103 10.8622L13.7278 9.01167C13.7278 9.01167 15.6678 9.00612 16.5226 9.01167ZM15.4911 11.5512C15.7086 11.5512 16.0925 11.4993 16.1885 11.1026C16.2937 10.6719 15.9334 10.6604 15.7605 10.6604L15.143 10.6579L14.9276 11.5512H15.4911ZM14.6182 12.6581L14.3338 13.6875H15.0611C15.3471 13.6875 15.737 13.5536 15.8326 13.2186C15.9269 12.8827 15.6544 12.6581 15.3694 12.6581H14.6182Z" fill="white"/>
<path fill-rule="evenodd" clip-rule="evenodd" d="M6.82508 16.045C5.74945 16.045 4.64416 15.7952 3.54026 15.3013L3.51318 15.2888L3.50022 15.2627C3.00484 14.277 2.7428 13.1989 2.7428 12.1441C2.7428 11.0908 2.99409 10.0588 3.48977 9.0744L3.50346 9.04824L3.53106 9.0352C4.55222 8.57918 5.65067 8.34826 6.79711 8.34826C7.86494 8.34826 9.00549 8.60534 10.0947 9.09314L10.1226 9.10486L10.1356 9.13151C10.6404 10.1354 10.9066 11.2133 10.9066 12.2507C10.9066 13.2839 10.651 14.3169 10.1455 15.3202L10.1323 15.3465L10.1042 15.3587C9.09853 15.8074 7.96461 16.045 6.82508 16.045ZM3.64259 15.1662C4.71491 15.6418 5.78451 15.8818 6.82525 15.8818C7.92877 15.8818 9.02619 15.6545 10.0032 15.2234C10.4885 14.2512 10.7345 13.2507 10.7345 12.2507C10.7345 11.2466 10.4777 10.2022 9.99207 9.22783C8.93499 8.75939 7.83102 8.51098 6.79728 8.51098C5.68742 8.51098 4.62356 8.73288 3.63332 9.17072C3.15796 10.1248 2.91601 11.1246 2.91601 12.1441C2.91601 13.1654 3.16738 14.2103 3.64259 15.1662Z" fill="white"/>
</svg>
