<svg width="32" height="23" viewBox="0 0 32 23" fill="none" xmlns="http://www.w3.org/2000/svg">
<rect y="0.00012207" width="32" height="22.8571" rx="4" fill="#0060AF"/>
<path fill-rule="evenodd" clip-rule="evenodd" d="M6.58181 13.6189C6.58181 13.3121 6.58535 12.4922 6.57732 12.3911C6.58431 11.171 5.64324 10.3103 5.04871 10.3774C4.63732 10.4111 4.29246 10.5692 4.10741 11.0241C3.93576 11.4481 4.08923 12.012 4.65969 12.1443C5.26961 12.2864 5.62587 12.4047 5.88364 12.5715C6.19949 12.7757 6.45734 13.1659 6.46419 13.6194" fill="white"/>
<path fill-rule="evenodd" clip-rule="evenodd" d="M6.32636 13.6193C6.32834 13.2261 6.09552 12.8784 5.79123 12.6915C5.52131 12.5264 5.15894 12.418 4.57434 12.2781C4.39364 12.2346 4.20461 12.1378 4.14609 12.0144C3.9913 12.1614 3.96318 12.492 3.99041 12.6852C4.02206 12.9087 4.2992 13.2772 4.71648 13.2916C4.97131 13.3013 5.29349 13.2399 5.44799 13.209C5.71453 13.1547 6.13623 13.3121 6.20336 13.6188" fill="white"/>
<path fill-rule="evenodd" clip-rule="evenodd" d="M6.79687 8.476C6.08928 8.476 5.47819 8.91585 5.48032 9.67696C5.48253 10.317 6.02855 10.6596 6.22347 10.9044C6.5179 11.2732 6.67726 11.7097 6.69375 12.3776C6.7067 12.9092 6.70604 13.4341 6.70891 13.6201H6.86503C6.86238 13.4255 6.85531 12.8682 6.86334 12.3612C6.87394 11.693 7.03904 11.2732 7.33362 10.9044C7.53022 10.6596 8.07573 10.317 8.07691 9.67696C8.07963 8.91585 7.46876 8.476 6.76191 8.476" fill="white"/>
<path fill-rule="evenodd" clip-rule="evenodd" d="M6.97672 13.6189C6.97672 13.3121 6.97304 12.4922 6.98092 12.3911C6.974 11.171 7.91448 10.3103 8.50953 10.3774C8.92092 10.4111 9.26533 10.5692 9.45097 11.0241C9.6224 11.4481 9.46812 12.012 8.8984 12.1443C8.28804 12.2864 7.9323 12.4047 7.67386 12.5715C7.35838 12.7757 7.11856 13.1659 7.1112 13.6194" fill="white"/>
<path fill-rule="evenodd" clip-rule="evenodd" d="M7.23125 13.6193C7.22904 13.2261 7.46179 12.8784 7.7652 12.6915C8.0363 12.5264 8.39903 12.418 8.98311 12.2781C9.16419 12.2346 9.35299 12.1378 9.41048 12.0144C9.56601 12.1614 9.59413 12.492 9.56682 12.6852C9.53458 12.9087 9.25811 13.2772 8.84156 13.2916C8.58688 13.3013 8.26293 13.2399 8.10909 13.209C7.84359 13.1547 7.42071 13.3121 7.35329 13.6188" fill="white"/>
<path fill-rule="evenodd" clip-rule="evenodd" d="M7.44935 14.8888L7.35889 14.2661L7.57743 14.2349C7.63057 14.2281 7.69535 14.2368 7.72126 14.2682C7.74989 14.301 7.75865 14.3281 7.76417 14.3711C7.77249 14.4244 7.75615 14.4859 7.69255 14.5166V14.5184C7.76351 14.5184 7.80642 14.5665 7.81893 14.6477C7.8207 14.6649 7.82615 14.7063 7.8207 14.7408C7.80627 14.8231 7.75431 14.8496 7.66642 14.8612L7.44935 14.8888ZM7.59042 14.7775C7.61633 14.774 7.64261 14.7726 7.66314 14.7603C7.69465 14.7409 7.69178 14.6996 7.68736 14.6688C7.67646 14.6012 7.65777 14.5755 7.58173 14.5861L7.53389 14.5931L7.56421 14.7809L7.59042 14.7775ZM7.54409 14.4896C7.57302 14.4852 7.61218 14.4819 7.62852 14.456C7.63713 14.4387 7.64803 14.425 7.64081 14.3865C7.63191 14.341 7.61593 14.3127 7.55447 14.3237L7.49728 14.3323L7.51988 14.4919L7.54409 14.4896Z" fill="white"/>
<path fill-rule="evenodd" clip-rule="evenodd" d="M8.3961 14.5144C8.39779 14.526 8.39978 14.5389 8.40051 14.5505C8.41818 14.664 8.3961 14.7581 8.26066 14.784C8.06037 14.8203 8.02202 14.7031 7.98684 14.5389L7.96807 14.45C7.94047 14.293 7.92862 14.1741 8.12382 14.1374C8.23387 14.1185 8.30659 14.1598 8.33684 14.263C8.34156 14.2784 8.34744 14.2936 8.34965 14.3092L8.22989 14.3325C8.21605 14.2936 8.19773 14.2243 8.14384 14.2301C8.04712 14.2412 8.07907 14.3545 8.08901 14.402L8.125 14.5725C8.13582 14.624 8.15732 14.7064 8.24101 14.6905C8.30895 14.6777 8.27928 14.5779 8.27325 14.537" fill="white"/>
<path fill-rule="evenodd" clip-rule="evenodd" d="M8.58867 14.7027L8.5473 14.0582L8.70814 14.0119L9.04548 14.5725L8.9188 14.6082L8.83886 14.4657L8.6982 14.5056L8.71638 14.6675L8.58867 14.7027ZM8.686 14.4016L8.78766 14.3738L8.65266 14.1131L8.686 14.4016Z" fill="white"/>
<path fill-rule="evenodd" clip-rule="evenodd" d="M4.61451 14.2155C4.66486 14.0636 4.70991 13.9517 4.9021 14.0013C5.00493 14.0285 5.06867 14.0711 5.06565 14.1838C5.06514 14.2088 5.05638 14.2344 5.05064 14.2591L4.93103 14.228C4.9467 14.1658 4.95664 14.1164 4.87538 14.0929C4.78146 14.0686 4.75856 14.176 4.74561 14.2223L4.69695 14.3912C4.6815 14.4414 4.66295 14.5243 4.74561 14.5458C4.81392 14.563 4.85528 14.4999 4.88002 14.4076L4.7964 14.3866L4.82533 14.2889L5.02208 14.3486L4.92867 14.6742L4.83813 14.651L4.85852 14.5822H4.85595C4.81421 14.6385 4.76342 14.6444 4.71889 14.6363C4.52213 14.5862 4.54267 14.465 4.58963 14.303" fill="white"/>
<path fill-rule="evenodd" clip-rule="evenodd" d="M5.34708 14.4905L5.28783 14.7554L5.15445 14.7283L5.29659 14.1097L5.52396 14.1581C5.65704 14.1852 5.69723 14.241 5.67839 14.356C5.66764 14.422 5.63312 14.4931 5.54884 14.4873L5.54796 14.4863C5.61921 14.5097 5.62524 14.5437 5.6128 14.6022C5.60743 14.6271 5.57041 14.7783 5.59595 14.8027L5.59683 14.8213L5.45882 14.7873C5.45308 14.7454 5.47266 14.6701 5.48038 14.6283C5.48811 14.5914 5.50055 14.5394 5.4608 14.5199C5.42974 14.5042 5.41811 14.5049 5.38293 14.4974L5.34708 14.4905ZM5.36963 14.3947L5.45943 14.4175C5.51397 14.425 5.5443 14.3984 5.55505 14.3362C5.56476 14.2793 5.55218 14.2571 5.50323 14.246L5.40695 14.2276L5.36963 14.3947Z" fill="white"/>
<path fill-rule="evenodd" clip-rule="evenodd" d="M6.20247 14.2479L6.33438 14.2623L6.27755 14.6973C6.24995 14.8351 6.19342 14.8954 6.03251 14.8766C5.86881 14.857 5.82994 14.7868 5.83981 14.6478L5.89707 14.2133L6.03001 14.2276L5.97296 14.6524C5.96685 14.6985 5.95559 14.7669 6.04259 14.7752C6.11981 14.7807 6.13733 14.7324 6.14609 14.6725" fill="white"/>
<path fill-rule="evenodd" clip-rule="evenodd" d="M6.47946 14.9003L6.51921 14.2785L6.77257 14.2888C6.8924 14.2944 6.92368 14.3866 6.92 14.4746C6.91647 14.5281 6.8988 14.5878 6.84934 14.6202C6.80878 14.6478 6.75659 14.6543 6.70831 14.6521L6.62572 14.6478L6.60923 14.9084L6.47946 14.9003ZM6.62946 14.553L6.69659 14.5565C6.75114 14.5584 6.78728 14.5381 6.79199 14.4626C6.79471 14.3901 6.76556 14.3778 6.6949 14.3749L6.64175 14.3731L6.62946 14.553Z" fill="white"/>
<path fill-rule="evenodd" clip-rule="evenodd" d="M24.3533 9.07687L23.3461 10.8003C22.9659 10.5092 22.5017 10.2951 21.9094 10.2951C20.5077 10.2951 19.9383 11.28 19.9383 11.9738C19.9383 12.4889 20.296 13.2487 21.5432 13.2487C22.0668 13.2487 22.811 12.9054 23.0252 12.7491L22.029 14.7486C21.5542 14.8379 21.3981 14.8933 20.9962 14.905C18.7639 14.9678 17.8619 13.6751 17.8625 12.3542C17.864 10.6079 19.5109 8.48423 22.2412 8.48423C22.4085 8.48423 22.6131 8.53884 22.7881 8.59928L22.9649 8.38605" fill="white"/>
<path fill-rule="evenodd" clip-rule="evenodd" d="M28.5101 8.44028L28.7953 14.704H26.6726L26.6715 13.6298H25.224L24.7477 14.704H22.4455L24.8523 10.2312L24.3096 10.2279L25.3407 8.44028H28.5101ZM26.6575 10.3566L25.8392 12.1785H26.6823L26.6575 10.3566Z" fill="white"/>
<path fill-rule="evenodd" clip-rule="evenodd" d="M16.5227 8.4403C17.5739 8.44585 18.1679 8.98374 18.1679 9.76068C18.1679 10.477 17.5414 11.111 16.8537 11.4389C17.5617 11.6843 17.623 12.2866 17.623 12.7126C17.623 13.7421 16.5273 14.704 15.1029 14.704H11.9964L13.2081 10.2935L12.7104 10.2908L13.7279 8.4403C13.7279 8.4403 15.6679 8.43475 16.5227 8.4403ZM15.4912 10.9799C15.7086 10.9799 16.0926 10.928 16.1885 10.5313C16.2937 10.1006 15.9334 10.089 15.7606 10.089L15.143 10.0865L14.9276 10.9799H15.4912ZM14.6182 12.0867L14.3339 13.1162H15.0611C15.3472 13.1162 15.7371 12.9822 15.8326 12.6472C15.927 12.3113 15.6544 12.0867 15.3694 12.0867H14.6182Z" fill="white"/>
<path fill-rule="evenodd" clip-rule="evenodd" d="M6.82511 15.4736C5.74948 15.4736 4.64419 15.2239 3.54029 14.73L3.51321 14.7174L3.50025 14.6914C3.00487 13.7057 2.74283 12.6276 2.74283 11.5728C2.74283 10.5194 2.99413 9.48744 3.4898 8.50304L3.50349 8.47688L3.53109 8.46383C4.55225 8.00782 5.6507 7.77689 6.79714 7.77689C7.86497 7.77689 9.00552 8.03398 10.0948 8.52177L10.1227 8.5335L10.1356 8.56014C10.6404 9.56404 10.9067 10.6419 10.9067 11.6793C10.9067 12.7126 10.651 13.7456 10.1456 14.7488L10.1323 14.7751L10.1042 14.7873C9.09856 15.2361 7.96464 15.4736 6.82511 15.4736ZM3.64262 14.5948C4.71494 15.0704 5.78454 15.3105 6.82528 15.3105C7.9288 15.3105 9.02622 15.0831 10.0032 14.6521C10.4885 13.6799 10.7345 12.6793 10.7345 11.6793C10.7345 10.6752 10.4778 9.63087 9.9921 8.65646C8.93502 8.18803 7.83105 7.93962 6.79731 7.93962C5.68745 7.93962 4.6236 8.16152 3.63335 8.59936C3.15799 9.55344 2.91604 10.5532 2.91604 11.5728C2.91604 12.5941 3.16741 13.6389 3.64262 14.5948Z" fill="white"/>
</svg>
