<svg width="22" height="22" viewBox="0 0 22 22" fill="none" xmlns="http://www.w3.org/2000/svg">
<path d="M14.625 4.4V4.9H15.125H16.775C17.2988 4.9 17.8012 5.10808 18.1715 5.47846L18.5251 5.12491L18.1715 5.47846C18.5419 5.84885 18.75 6.3512 18.75 6.875V16.775C18.75 17.2988 18.5419 17.8012 18.1715 18.1715C17.8012 18.5419 17.2988 18.75 16.775 18.75H5.225C4.7012 18.75 4.19885 18.5419 3.82846 18.1715L3.47888 18.5211L3.82846 18.1715C3.45808 17.8012 3.25 17.2988 3.25 16.775V6.875C3.25 6.3512 3.45808 5.84885 3.82846 5.47846C4.19885 5.10808 4.7012 4.9 5.225 4.9H6.875H7.375V4.4V3.575C7.375 3.4888 7.40924 3.40614 7.47019 3.34519C7.53114 3.28424 7.6138 3.25 7.7 3.25C7.7862 3.25 7.86886 3.28424 7.92981 3.34519C7.99076 3.40614 8.025 3.48881 8.025 3.575V4.4V4.9H8.525H13.475H13.975V4.4V3.575C13.975 3.48881 14.0092 3.40614 14.0702 3.34519C14.1311 3.28424 14.2138 3.25 14.3 3.25C14.3862 3.25 14.4689 3.28424 14.5298 3.34519C14.5908 3.40614 14.625 3.4888 14.625 3.575V4.4ZM4.4 10.5H3.9V11V16.775C3.9 17.1264 4.0396 17.4634 4.28808 17.7119C4.53657 17.9604 4.87359 18.1 5.225 18.1H16.775C17.1264 18.1 17.4634 17.9604 17.7119 17.7119C17.9604 17.4634 18.1 17.1264 18.1 16.775V11V10.5H17.6H4.4ZM17.6 9.85H18.1V9.35V6.875C18.1 6.52359 17.9604 6.18657 17.7119 5.93808C17.4634 5.6896 17.1264 5.55 16.775 5.55H15.125H14.625V6.05V6.875C14.625 6.9612 14.5908 7.04386 14.5298 7.10481C14.4689 7.16576 14.3862 7.2 14.3 7.2C14.2138 7.2 14.1311 7.16576 14.0702 7.10481C14.0092 7.04386 13.975 6.96119 13.975 6.875V6.05V5.55H13.475H8.525H8.025V6.05V6.875C8.025 6.96119 7.99076 7.04386 7.92981 7.10481C7.86886 7.16576 7.7862 7.2 7.7 7.2C7.6138 7.2 7.53114 7.16576 7.47019 7.10481C7.40924 7.04386 7.375 6.96119 7.375 6.875V6.05V5.55H6.875H5.225C4.87359 5.55 4.53657 5.6896 4.28808 5.93808C4.0396 6.18657 3.9 6.52359 3.9 6.875V9.35V9.85H4.4H17.6Z" fill="#333333" stroke="#191F2A"/>
</svg>
