<svg width="32" height="24" viewBox="0 0 32 24" fill="none" xmlns="http://www.w3.org/2000/svg">
<rect y="0.285767" width="32" height="22.8571" rx="4" fill="white"/>
<path fill-rule="evenodd" clip-rule="evenodd" d="M5.18934 13.8586L6.27533 15.2034H3.58661L5.18934 13.8586ZM4.84787 13.4431L2.74461 15.2074L2.74375 10.8682L4.84787 13.4431ZM9.90903 9.0737C9.90903 9.0737 9.44731 8.85513 8.91091 8.88705C8.29768 8.92317 7.78465 9.15835 7.48972 9.46867C7.30413 9.66362 7.09897 9.90145 6.99592 10.1597C6.84647 10.5334 6.81456 11.0271 6.81456 11.0271C6.81456 11.0271 6.60009 10.8451 6.33137 10.3146C6.01893 9.69768 5.93347 9.32395 5.89113 8.89758C5.85344 8.52341 5.9126 8.15344 5.9126 8.15344H9.90903V9.0737ZM9.90825 10.3039V13.0399C9.90825 13.0399 9.6598 13.1353 9.45714 13.1353C9.25448 13.1353 8.90936 13.1053 8.50853 12.8849C8.11063 12.6663 7.89037 12.4019 7.71962 12.1623C7.54646 11.9185 7.40348 11.5806 7.36096 11.3372C7.32681 11.1424 7.28999 10.6565 7.48894 10.2617C7.59691 10.0474 7.88667 9.68005 8.44454 9.65916C8.89927 9.64171 9.15143 9.76126 9.38254 9.8881C9.82236 10.1299 9.90825 10.3039 9.90825 10.3039ZM5.55697 12.8478L6.27783 12.2469C6.04809 11.9535 5.98738 11.8429 5.73056 11.464C5.46762 11.0762 5.24737 10.6496 5.05903 10.149C4.85516 9.60679 4.80592 9.30238 4.82843 8.89758C4.85663 8.38255 4.97374 8.15344 4.97374 8.15344H2.74286L2.74389 9.35578C2.74389 9.35578 4.45157 11.4958 5.55697 12.8478ZM7.61667 15.2014H9.90861V13.5302C9.90861 13.5302 9.34013 13.791 8.9706 13.812C8.75061 13.8249 8.53708 13.8333 8.19256 13.7417C7.80958 13.6399 7.592 13.5407 7.23705 13.248C6.95195 13.0131 6.62597 12.6663 6.62597 12.6663L5.90088 13.2709C6.2373 13.6824 6.48575 13.9819 6.56181 14.0625C6.88882 14.4081 7.02741 14.5351 7.24766 14.6583C7.46782 14.7817 8.20343 14.775 8.20343 14.775L7.61667 15.2014Z" fill="#E94E0F"/>
<path fill-rule="evenodd" clip-rule="evenodd" d="M27.243 13.7148C27.243 14.1991 27.3083 14.995 26.7661 15.1887V15.221H28.8256V15.1887C28.2837 14.9844 28.3487 14.1991 28.3487 13.7148V9.65937C28.3487 9.1754 28.2837 8.37932 28.8256 8.17495V8.14268H26.7661V8.17495C27.3189 8.37932 27.243 9.16462 27.243 9.65937V13.7148ZM19.6906 9.65937L23.4087 14.3389C23.8855 14.9519 24.2218 15.3071 24.9913 15.5651V9.53031C24.9913 8.92798 24.9913 8.49759 25.5552 8.17495V8.14268H23.6472V8.17495C24.2218 8.49759 24.2107 8.92798 24.2107 9.53031V13.6073L20.2435 8.63743L20.0916 8.42228C20.0159 8.33627 19.9726 8.28253 19.9292 8.15347V8.14268H18.3463V8.17495C18.91 8.49759 18.91 8.92798 18.91 9.53031V13.8227C18.91 14.4249 18.91 14.8551 18.3357 15.1887V15.221H20.2544V15.1887C19.6798 14.8551 19.6906 14.4249 19.6906 13.8227V9.65937ZM13.6303 10.9933V8.88494L14.3565 8.80945C15.007 8.74492 15.7006 9.13227 15.7006 9.87461C15.7006 10.7567 14.6924 10.9933 13.9881 10.9933H13.6303ZM13.6303 14.3605V11.7033L14.389 11.6604C15.3429 11.6065 16.3618 12.0585 16.3618 13.1019C16.3618 14.1238 15.4624 14.5326 14.5733 14.4466L13.6303 14.3605ZM12.5244 13.7041C12.5244 14.1991 12.5895 14.9844 12.0473 15.1887V15.221H13.836C14.6489 15.221 15.5055 15.2533 16.2642 14.8876C16.9904 14.5433 17.565 13.8332 17.565 13.0049C17.565 11.9508 16.7736 11.3053 15.798 11.1007C16.4159 10.8319 16.8819 10.4232 16.8819 9.70242C16.8819 8.74501 16.0474 8.14269 14.6167 8.14269H12.0473V8.17495C12.6004 8.37932 12.5244 9.16462 12.5244 9.64858V13.7041Z" fill="#005B6A"/>
</svg>
