<svg width="16" height="16" viewBox="0 0 16 16" fill="none" xmlns="http://www.w3.org/2000/svg">
<path d="M12.6667 3.33348L9.06671 6.93348M12.6667 3.33348H9.33337M12.6667 3.33348V6.66681M3.33337 9.33348C3.33337 10.2175 3.68456 11.0654 4.30968 11.6905C4.93481 12.3156 5.78265 12.6668 6.66671 12.6668C7.55076 12.6668 8.39861 12.3156 9.02373 11.6905C9.64885 11.0654 10 10.2175 10 9.33348C10 8.44943 9.64885 7.60158 9.02373 6.97646C8.39861 6.35134 7.55076 6.00015 6.66671 6.00015C5.78265 6.00015 4.93481 6.35134 4.30968 6.97646C3.68456 7.60158 3.33337 8.44943 3.33337 9.33348Z" stroke="#3B4963" stroke-width="2" stroke-linecap="round" stroke-linejoin="round"/>
</svg>
