<svg width="32" height="23" viewBox="0 0 32 23" fill="none" xmlns="http://www.w3.org/2000/svg">
<rect y="0.142914" width="32" height="22.8571" rx="4" fill="#00529C"/>
<g clip-path="url(#clip0_142_4153)">
<path d="M12.3771 13.9637L10.1417 11.5715L11.2046 10.4296C11.424 10.1405 11.5611 9.71407 11.5611 9.23706C11.5611 8.78897 11.4446 8.39147 11.2526 8.1096L11.7326 8.12406C12.0891 8.12406 12.3771 8.43483 12.3771 8.81065V13.9637ZM11.7189 15.0117H9.05143C9.05143 15.0117 9.36 14.3034 9.36 13.8698C9.36 13.3422 9.18858 12.8652 8.928 12.5544L8.00915 11.5715L8.94172 10.5524C9.22286 10.2778 9.408 9.78634 9.408 9.23706C9.408 8.7962 9.29143 8.40592 9.10629 8.11683H9.75086C10.2994 8.11683 10.7383 8.61551 10.7383 9.20815C10.7383 9.49725 10.6286 9.75743 10.4571 9.95257L8.95543 11.5715L12.0686 14.9177C11.9726 14.9828 11.8491 15.0117 11.7189 15.0117ZM7.31658 15.0189H7.02172C6.66515 15.0189 6.37715 14.7081 6.37715 14.3323L6.37029 14.2745V9.06361L6.37715 8.78897C6.39086 8.42038 6.65143 8.11683 7.00115 8.11683H7.60458C8.14629 8.11683 8.58515 8.61551 8.58515 9.20815C8.58515 9.49725 8.47543 9.75743 8.304 9.95257L6.77486 11.5859L8.208 13.1254C8.39315 13.3277 8.50286 13.5879 8.50286 13.877C8.50286 14.5058 7.97486 15.0189 7.31658 15.0189ZM12.0754 7.46637H6.672C6.02057 7.46637 5.48572 8.04456 5.48572 8.75283V14.3901C5.48572 15.0912 6.00686 15.6622 6.65829 15.6766H12.0754C12.7269 15.6766 13.2617 15.0984 13.2617 14.3901V8.75283C13.2617 8.04456 12.7337 7.46637 12.0754 7.46637Z" fill="white"/>
<path d="M16.7109 12.0051C17.04 12.0051 17.2869 12.0918 17.4446 12.2725C17.5954 12.446 17.664 12.6556 17.664 12.9013C17.664 13.147 17.5817 13.3566 17.4103 13.5373C17.2389 13.7108 16.9577 13.7975 16.5669 13.7975H16.4229H15.2434V12.0051H16.7109ZM16.9029 9.3816C16.9852 9.41051 17.0606 9.4611 17.1154 9.51892C17.2663 9.6707 17.3417 9.84415 17.3417 10.0537C17.3417 10.2489 17.3074 10.4007 17.2457 10.5235C17.184 10.6536 17.1223 10.7476 17.0606 10.8126H15.2434V9.29487H16.3749C16.5874 9.29487 16.7589 9.32378 16.9029 9.3816ZM18.0549 11.1884C18.096 11.1378 18.1509 11.08 18.2126 11.0078C18.2674 10.9355 18.3223 10.8487 18.3772 10.7548C18.432 10.6536 18.4732 10.5452 18.5143 10.4223C18.5486 10.2995 18.5692 10.1694 18.5692 10.0321C18.5692 9.76465 18.528 9.51169 18.4389 9.28042C18.3497 9.04915 18.2194 8.84678 18.0343 8.67333C17.856 8.49987 17.6297 8.36255 17.3623 8.26137C17.088 8.16741 16.7726 8.11682 16.4092 8.11682H16.4023H15.3669H15.0926H14.0297V9.36715V13.7108V15.0045H16.6492C17.0263 15.0045 17.3554 14.9466 17.6434 14.8382C17.9246 14.737 18.1577 14.5853 18.3429 14.3974C18.5349 14.2022 18.672 13.9854 18.7612 13.7325C18.8503 13.4795 18.8983 13.2049 18.8983 12.9158C18.8983 12.5327 18.8092 12.1858 18.6446 11.8823C18.4732 11.5859 18.2812 11.3474 18.0549 11.1884Z" fill="white"/>
<path d="M21.9017 9.29487C21.984 9.29487 22.0526 9.3021 22.128 9.30933C22.3474 9.34547 22.5257 9.43219 22.6629 9.56229C22.8549 9.74297 22.9509 9.95979 22.9509 10.22C22.9509 10.3501 22.9303 10.4802 22.8891 10.603C22.848 10.7259 22.7863 10.8415 22.6971 10.9355C22.608 11.0294 22.4983 11.1017 22.3611 11.1668C22.224 11.2246 22.0594 11.2535 21.8674 11.2535H20.5577V9.29487H21.9017ZM23.328 12.034C23.5269 11.8967 23.6846 11.7305 23.8217 11.5426C23.952 11.3547 24.048 11.1523 24.1097 10.9282C24.1714 10.697 24.1989 10.4657 24.1989 10.2344C24.1989 9.92365 24.1509 9.64179 24.0549 9.3816C23.9589 9.12142 23.8149 8.89737 23.6229 8.70946C23.4309 8.52155 23.1909 8.377 22.896 8.27582C22.608 8.16741 22.272 8.11682 21.8949 8.11682H21.8606H19.344H19.3234V15.0045H20.5577V12.446H21.2503L22.9577 15.0045H24.4046L22.6423 12.3593C22.9029 12.287 23.1291 12.1786 23.328 12.034Z" fill="white"/>
<path d="M24.8434 8.11682C24.8297 8.11682 24.816 8.11682 24.8091 8.11682H24.7954V10.6392V12.4532V15.0045H26.0571V8.11682H24.8434Z" fill="white"/>
</g>
<defs>
<clipPath id="clip0_142_4153">
<rect width="20.5714" height="8.22857" fill="white" transform="translate(5.48572 7.45721)"/>
</clipPath>
</defs>
</svg>
