<svg width="32" height="23" viewBox="0 0 32 23" fill="none" xmlns="http://www.w3.org/2000/svg">
<rect y="6.10352e-05" width="32" height="22.8571" rx="4" fill="white"/>
<g clip-path="url(#clip0_142_1389)">
<path d="M7.11252 16.3649C7.1909 16.3649 7.25842 16.356 7.31508 16.3382C7.37174 16.3204 7.41801 16.2957 7.4539 16.2638C7.49073 16.2311 7.51764 16.1928 7.53464 16.1488C7.55164 16.1039 7.56013 16.0548 7.56013 16.0015C7.56013 15.8977 7.52283 15.8158 7.44823 15.7559C7.37363 15.6951 7.26173 15.6647 7.11252 15.6647H6.67341V16.3649L7.11252 16.3649ZM6.67341 14.785V15.4711H7.03603C7.11347 15.4711 7.18051 15.4627 7.23717 15.4459C7.29478 15.429 7.34199 15.4057 7.37882 15.3757C7.4166 15.3458 7.44445 15.3098 7.4624 15.2677C7.48034 15.2247 7.48931 15.1779 7.48931 15.1274C7.48931 15.0086 7.45342 14.9221 7.38166 14.8678C7.30989 14.8126 7.19846 14.785 7.04736 14.785L6.67341 14.785ZM7.04736 14.5704C7.17202 14.5704 7.2792 14.5825 7.36891 14.6069C7.45956 14.6312 7.53369 14.6658 7.5913 14.7107C7.64985 14.7556 7.69281 14.8108 7.7202 14.8762C7.74758 14.9408 7.76128 15.0137 7.76128 15.0951C7.76128 15.1447 7.75325 15.1924 7.7372 15.2382C7.72209 15.2831 7.69895 15.3252 7.66779 15.3645C7.63663 15.4038 7.59696 15.4393 7.5488 15.4711C7.50159 15.502 7.44587 15.5272 7.38166 15.5469C7.53086 15.5749 7.64276 15.6278 7.71737 15.7054C7.79291 15.7821 7.83069 15.8831 7.83069 16.0085C7.83069 16.0936 7.81463 16.1712 7.78252 16.2414C7.75136 16.3115 7.70509 16.3719 7.64371 16.4224C7.58327 16.4729 7.50867 16.5122 7.4199 16.5402C7.33113 16.5674 7.23009 16.5809 7.11677 16.5809H6.40002V14.5704H7.04736Z" fill="#00A39D"/>
<path d="M9.32086 15.8345L9.00215 15.0165C8.99271 14.9922 8.98279 14.9642 8.9724 14.9324C8.96201 14.8996 8.9521 14.865 8.94266 14.8285C8.92282 14.9043 8.90252 14.9674 8.88175 15.0179L8.56304 15.8345H9.32086ZM9.89313 16.5809H9.68065C9.6561 16.5809 9.63627 16.5748 9.62116 16.5627C9.60605 16.5505 9.59472 16.5351 9.58716 16.5164L9.39735 16.0309H8.48654L8.29673 16.5164C8.29107 16.5332 8.28021 16.5482 8.26415 16.5613C8.2481 16.5744 8.22827 16.5809 8.20466 16.5809H7.99219L8.80384 14.5704H9.08147L9.89313 16.5809Z" fill="#00A39D"/>
<path d="M11.8451 14.5704V16.5809H11.7077C11.6859 16.5809 11.6675 16.5772 11.6524 16.5697C11.6382 16.5622 11.6241 16.5496 11.6099 16.5318L10.4356 15.0166C10.4375 15.0399 10.4389 15.0629 10.4399 15.0853C10.4408 15.1077 10.4413 15.1288 10.4413 15.1484V16.5809H10.2005V14.5704H10.3422C10.3544 14.5704 10.3648 14.5713 10.3733 14.5732C10.3818 14.5741 10.3894 14.5764 10.396 14.5802C10.4026 14.583 10.4092 14.5877 10.4158 14.5942C10.4224 14.5998 10.4295 14.6073 10.4371 14.6167L11.6113 16.1305C11.6094 16.1062 11.6076 16.0828 11.6057 16.0604C11.6047 16.037 11.6043 16.015 11.6043 15.9945V14.5704L11.8451 14.5704Z" fill="#00A39D"/>
<path d="M12.6765 15.4515H12.7799C12.8158 15.4515 12.8446 15.4473 12.8663 15.4389C12.8881 15.4295 12.9079 15.4141 12.9258 15.3926L13.6015 14.6349C13.6204 14.6106 13.6402 14.5938 13.661 14.5844C13.6818 14.575 13.7073 14.5704 13.7375 14.5704H13.9698L13.1964 15.436C13.1775 15.4585 13.1591 15.4772 13.1411 15.4922C13.1241 15.5062 13.1057 15.5179 13.0859 15.5272C13.1114 15.5357 13.1345 15.5483 13.1553 15.5651C13.1761 15.581 13.1964 15.6021 13.2162 15.6283L14.0236 16.5809H13.7856C13.7677 16.5809 13.7521 16.58 13.7389 16.5781C13.7266 16.5753 13.7158 16.5716 13.7063 16.5669C13.6969 16.5613 13.6884 16.5552 13.6808 16.5487C13.6742 16.5412 13.6676 16.5328 13.661 16.5234L12.9612 15.7251C12.9424 15.7017 12.922 15.6853 12.9003 15.676C12.8786 15.6657 12.8456 15.6606 12.8012 15.6606H12.6765V16.5809H12.4031V14.5704H12.6765V15.4515Z" fill="#00A39D"/>
<path d="M16.1228 14.8847C16.1143 14.8987 16.1049 14.9094 16.0945 14.9169C16.0851 14.9235 16.0733 14.9267 16.0591 14.9267C16.043 14.9267 16.0242 14.9188 16.0024 14.9029C15.9807 14.887 15.9533 14.8697 15.9203 14.851C15.8882 14.8313 15.849 14.8136 15.8027 14.7977C15.7574 14.7818 15.7021 14.7738 15.637 14.7738C15.5756 14.7738 15.5213 14.7822 15.4741 14.7991C15.4278 14.815 15.3886 14.837 15.3565 14.865C15.3254 14.8931 15.3017 14.9263 15.2857 14.9646C15.2696 15.0021 15.2616 15.0427 15.2616 15.0867C15.2616 15.1428 15.2753 15.1896 15.3027 15.227C15.331 15.2635 15.3679 15.2948 15.4132 15.321C15.4595 15.3472 15.5114 15.3701 15.569 15.3898C15.6275 15.4085 15.687 15.4281 15.7475 15.4487C15.8089 15.4693 15.8683 15.4926 15.926 15.5188C15.9845 15.5441 16.0364 15.5764 16.0818 15.6156C16.128 15.6549 16.1649 15.7031 16.1923 15.7602C16.2206 15.8172 16.2347 15.8874 16.2347 15.9706C16.2347 16.0585 16.2196 16.1413 16.1894 16.2189C16.1592 16.2956 16.1148 16.3625 16.0563 16.4196C15.9987 16.4766 15.9274 16.5215 15.8424 16.5543C15.7583 16.587 15.6625 16.6034 15.5548 16.6034C15.4226 16.6034 15.3027 16.58 15.195 16.5332C15.0874 16.4855 14.9953 16.4215 14.9188 16.341L14.9981 16.2119C15.0057 16.2016 15.0147 16.1932 15.0251 16.1867C15.0364 16.1792 15.0487 16.1755 15.0619 16.1755C15.0742 16.1755 15.0879 16.1806 15.103 16.1909C15.119 16.2002 15.137 16.2124 15.1568 16.2274C15.1766 16.2423 15.1993 16.2587 15.2248 16.2765C15.2503 16.2942 15.2791 16.3106 15.3112 16.3256C15.3442 16.3405 15.3815 16.3532 15.4231 16.3635C15.4646 16.3728 15.5114 16.3775 15.5633 16.3775C15.6285 16.3775 15.6866 16.3686 15.7376 16.3508C15.7886 16.3331 15.8315 16.3083 15.8665 16.2765C15.9023 16.2437 15.9297 16.2049 15.9486 16.16C15.9675 16.1151 15.9769 16.0651 15.9769 16.0099C15.9769 15.9491 15.9628 15.8995 15.9345 15.8612C15.9071 15.8219 15.8707 15.7892 15.8254 15.763C15.7801 15.7368 15.7281 15.7148 15.6696 15.697C15.611 15.6783 15.5515 15.6596 15.4911 15.6409C15.4306 15.6213 15.3712 15.5988 15.3126 15.5736C15.2541 15.5483 15.2021 15.5156 15.1568 15.4753C15.1115 15.4351 15.0746 15.3851 15.0463 15.3252C15.0189 15.2644 15.0052 15.1896 15.0052 15.1007C15.0052 15.0296 15.0189 14.9609 15.0463 14.8945C15.0746 14.8281 15.1152 14.7692 15.1681 14.7177C15.222 14.6663 15.2876 14.6251 15.365 14.5942C15.4434 14.5634 15.5331 14.5479 15.6342 14.5479C15.7475 14.5479 15.8504 14.5657 15.9429 14.6013C16.0364 14.6368 16.1186 14.6882 16.1894 14.7556L16.1228 14.8847Z" fill="#00A39D"/>
<path d="M17.3821 15.7798V16.5809H17.1073V15.7798L16.3636 14.5704H16.6045C16.629 14.5704 16.6484 14.5765 16.6625 14.5886C16.6767 14.5998 16.689 14.6148 16.6994 14.6335L17.164 15.415C17.181 15.4477 17.1965 15.4786 17.2107 15.5076C17.2249 15.5357 17.2372 15.5642 17.2475 15.5932C17.2579 15.5642 17.2697 15.5357 17.283 15.5076C17.2962 15.4786 17.3108 15.4477 17.3269 15.415L17.7901 14.6335C17.7986 14.6176 17.8104 14.6031 17.8255 14.59C17.8406 14.5769 17.8599 14.5704 17.8835 14.5704H18.1258L17.3821 15.7798Z" fill="#00A39D"/>
<path d="M19.3071 15.8345L18.9884 15.0165C18.979 14.9922 18.9691 14.9642 18.9587 14.9324C18.9483 14.8996 18.9384 14.865 18.9289 14.8285C18.9091 14.9043 18.8888 14.9674 18.868 15.0179L18.5493 15.8345H19.3071ZM19.8794 16.5809H19.6669C19.6424 16.5809 19.6225 16.5748 19.6074 16.5627C19.5923 16.5505 19.581 16.5351 19.5734 16.5164L19.3836 16.0309H18.4728L18.283 16.5164C18.2773 16.5332 18.2665 16.5482 18.2504 16.5613C18.2344 16.5744 18.2145 16.5809 18.1909 16.5809H17.9785L18.7901 14.5704H19.0677L19.8794 16.5809Z" fill="#00A39D"/>
<path d="M20.7491 15.5441C20.8284 15.5441 20.8983 15.5347 20.9588 15.516C21.0201 15.4964 21.0711 15.4692 21.1117 15.4346C21.1533 15.3991 21.1845 15.357 21.2052 15.3084C21.226 15.2597 21.2364 15.2059 21.2364 15.147C21.2364 15.0273 21.1967 14.937 21.1174 14.8762C21.0381 14.8154 20.9191 14.785 20.7604 14.785H20.4602V15.5441H20.7491ZM21.6868 16.5809H21.4432C21.3931 16.5809 21.3563 16.5617 21.3327 16.5234L20.8058 15.805C20.7897 15.7826 20.7723 15.7667 20.7534 15.7573C20.7354 15.7471 20.7071 15.7419 20.6684 15.7419H20.4602V16.5809H20.1868V14.5704H20.7604C20.8889 14.5704 20.9998 14.5835 21.0933 14.6097C21.1868 14.6349 21.2638 14.6719 21.3242 14.7205C21.3856 14.7691 21.4309 14.8281 21.4602 14.8973C21.4895 14.9656 21.5041 15.0423 21.5041 15.1274C21.5041 15.1985 21.4928 15.2649 21.4701 15.3266C21.4474 15.3883 21.4144 15.444 21.371 15.4936C21.3285 15.5422 21.2761 15.5838 21.2137 15.6184C21.1523 15.653 21.0825 15.6792 21.0041 15.697C21.039 15.7167 21.0692 15.7452 21.0947 15.7826L21.6868 16.5809Z" fill="#00A39D"/>
<path d="M22.2761 16.5809H22.0013V14.5704H22.2761V16.5809Z" fill="#00A39D"/>
<path d="M23.9121 15.8345L23.5934 15.0165C23.584 14.9922 23.574 14.9642 23.5637 14.9324C23.5533 14.8996 23.5434 14.865 23.5339 14.8285C23.5141 14.9043 23.4938 14.9674 23.473 15.0179L23.1543 15.8345H23.9121ZM24.4844 16.5809H24.2719C24.2473 16.5809 24.2275 16.5748 24.2124 16.5627C24.1973 16.5505 24.186 16.5351 24.1784 16.5164L23.9886 16.0309H23.0778L22.888 16.5164C22.8823 16.5332 22.8715 16.5482 22.8554 16.5613C22.8394 16.5744 22.8195 16.5809 22.7959 16.5809H22.5834L23.3951 14.5704H23.6727L24.4844 16.5809Z" fill="#00A39D"/>
<path d="M26.4363 14.5704V16.5809H26.1615V15.6661H25.0665V16.5809H24.7917V14.5704H25.0665V15.4669H26.1615V14.5704H26.4363Z" fill="#00A39D"/>
<path d="M6.67482 19.387H6.40002V17.3764H6.67482V19.387Z" fill="#00A39D"/>
<path d="M8.87746 17.3764V19.387H8.74006C8.71834 19.387 8.69993 19.3833 8.68482 19.3758C8.67065 19.3683 8.65649 19.3557 8.64232 19.3379L7.46805 17.8226C7.46994 17.846 7.47135 17.8689 7.4723 17.8914C7.47324 17.9138 7.47371 17.9349 7.47371 17.9545V19.387H7.23291V17.3765H7.37456C7.38684 17.3765 7.39722 17.3774 7.40572 17.3793C7.41422 17.3802 7.42178 17.3825 7.42839 17.3863C7.435 17.3891 7.44161 17.3937 7.44822 17.4003C7.45483 17.4059 7.46191 17.4134 7.46947 17.4227L8.64374 18.9366C8.64186 18.9123 8.63997 18.8889 8.63808 18.8665C8.63713 18.8431 8.63666 18.8211 8.63666 18.8005V17.3764L8.87746 17.3764Z" fill="#00A39D"/>
<path d="M11.1948 18.3824C11.1948 18.533 11.1708 18.67 11.1226 18.7935C11.0744 18.917 11.0064 19.0227 10.9186 19.1106C10.8308 19.1985 10.725 19.2668 10.6013 19.3154C10.4786 19.3631 10.3426 19.387 10.1934 19.387H9.43555V17.3764H10.1934C10.3426 17.3764 10.4786 17.4008 10.6013 17.4494C10.725 17.4971 10.8308 17.5654 10.9186 17.6542C11.0064 17.7422 11.0744 17.8479 11.1226 17.9713C11.1708 18.0948 11.1948 18.2318 11.1948 18.3824ZM10.913 18.3824C10.913 18.2589 10.896 18.1486 10.862 18.0513C10.828 17.954 10.7798 17.8717 10.7175 17.8044C10.6552 17.737 10.5796 17.6856 10.4908 17.65C10.4021 17.6145 10.3029 17.5967 10.1934 17.5967H9.71035V19.1667H10.1934C10.3029 19.1667 10.4021 19.1489 10.4908 19.1134C10.5796 19.0778 10.6552 19.0269 10.7175 18.9605C10.7798 18.8931 10.828 18.8108 10.862 18.7135C10.896 18.6163 10.913 18.5059 10.913 18.3824Z" fill="#00A39D"/>
<path d="M13.5052 18.3824C13.5052 18.533 13.4811 18.6715 13.4329 18.7977C13.3848 18.9231 13.3168 19.0311 13.229 19.1218C13.1411 19.2126 13.0354 19.2832 12.9117 19.3337C12.7889 19.3833 12.6529 19.408 12.5037 19.408C12.3545 19.408 12.2185 19.3833 12.0958 19.3337C11.973 19.2832 11.8677 19.2126 11.7799 19.1218C11.6921 19.0311 11.6241 18.9231 11.5759 18.7977C11.5277 18.6715 11.5037 18.533 11.5037 18.3824C11.5037 18.2318 11.5277 18.0939 11.5759 17.9685C11.6241 17.8423 11.6921 17.7338 11.7799 17.643C11.8677 17.5514 11.973 17.4803 12.0958 17.4298C12.2185 17.3793 12.3545 17.354 12.5037 17.354C12.6529 17.354 12.7889 17.3793 12.9117 17.4298C13.0354 17.4803 13.1411 17.5514 13.229 17.643C13.3168 17.7338 13.3848 17.8423 13.4329 17.9685C13.4811 18.0939 13.5052 18.2318 13.5052 18.3824ZM13.2233 18.3824C13.2233 18.259 13.2063 18.1481 13.1723 18.0499C13.1383 17.9517 13.0901 17.8689 13.0278 17.8016C12.9655 17.7333 12.8899 17.6809 12.8012 17.6444C12.7124 17.608 12.6133 17.5897 12.5037 17.5897C12.3951 17.5897 12.2964 17.608 12.2077 17.6444C12.1189 17.6809 12.0429 17.7333 11.9796 17.8016C11.9173 17.8689 11.8691 17.9517 11.8351 18.0499C11.8011 18.1481 11.7841 18.259 11.7841 18.3824C11.7841 18.5059 11.8011 18.6167 11.8351 18.7149C11.8691 18.8122 11.9173 18.895 11.9796 18.9633C12.0429 19.0306 12.1189 19.0825 12.2077 19.119C12.2964 19.1546 12.3951 19.1723 12.5037 19.1723C12.6133 19.1723 12.7124 19.1546 12.8012 19.119C12.8899 19.0825 12.9655 19.0306 13.0278 18.9633C13.0901 18.895 13.1383 18.8122 13.1723 18.7149C13.2063 18.6167 13.2233 18.5059 13.2233 18.3824Z" fill="#00A39D"/>
<path d="M15.5817 17.3764V19.387H15.4443C15.4226 19.387 15.4042 19.3833 15.3891 19.3758C15.3749 19.3683 15.3608 19.3557 15.3466 19.3379L14.1723 17.8226C14.1742 17.846 14.1756 17.8689 14.1766 17.8914C14.1775 17.9138 14.178 17.9349 14.178 17.9545V19.387H13.9372V17.3765H14.0788C14.0911 17.3765 14.1015 17.3774 14.11 17.3793C14.1185 17.3802 14.1261 17.3825 14.1327 17.3863C14.1393 17.3891 14.1459 17.3937 14.1525 17.4003C14.1591 17.4059 14.1662 17.4134 14.1737 17.4227L15.348 18.9366C15.3461 18.9123 15.3442 18.8889 15.3424 18.8665C15.3414 18.8431 15.3409 18.8211 15.3409 18.8005V17.3764L15.5817 17.3764Z" fill="#00A39D"/>
<path d="M17.392 19.1653L17.3906 19.387H16.1398V17.3764H17.3906V17.5981H16.4146V18.266H17.205V18.4792H16.4146V19.1653H17.392Z" fill="#00A39D"/>
<path d="M18.8539 17.6907C18.8454 17.7047 18.8359 17.7155 18.8255 17.723C18.8161 17.7295 18.8043 17.7328 18.7901 17.7328C18.7741 17.7328 18.7552 17.7249 18.7335 17.709C18.7117 17.6931 18.6844 17.6758 18.6513 17.6571C18.6192 17.6374 18.58 17.6196 18.5337 17.6037C18.4884 17.5878 18.4332 17.5799 18.368 17.5799C18.3066 17.5799 18.2523 17.5883 18.2051 17.6051C18.1588 17.621 18.1196 17.643 18.0875 17.6711C18.0564 17.6991 18.0328 17.7323 18.0167 17.7707C18.0007 17.8081 17.9926 17.8488 17.9926 17.8928C17.9926 17.9489 18.0063 17.9957 18.0337 18.0331C18.062 18.0695 18.0989 18.1009 18.1442 18.1271C18.1905 18.1533 18.2424 18.1762 18.3 18.1958C18.3586 18.2145 18.4181 18.2342 18.4785 18.2547C18.5399 18.2753 18.5994 18.2987 18.657 18.3249C18.7155 18.3501 18.7675 18.3824 18.8128 18.4217C18.8591 18.461 18.8959 18.5092 18.9233 18.5662C18.9516 18.6233 18.9658 18.6934 18.9658 18.7767C18.9658 18.8646 18.9507 18.9474 18.9204 19.025C18.8902 19.1017 18.8458 19.1686 18.7873 19.2256C18.7297 19.2827 18.6584 19.3276 18.5734 19.3603C18.4894 19.3931 18.3935 19.4094 18.2858 19.4094C18.1536 19.4094 18.0337 19.3861 17.9261 19.3393C17.8184 19.2916 17.7263 19.2275 17.6498 19.1471L17.7292 19.018C17.7367 19.0077 17.7457 18.9993 17.7561 18.9928C17.7674 18.9853 17.7797 18.9815 17.7929 18.9815C17.8052 18.9815 17.8189 18.9867 17.834 18.997C17.85 19.0063 17.868 19.0185 17.8878 19.0334C17.9076 19.0484 17.9303 19.0648 17.9558 19.0825C17.9813 19.1003 18.0101 19.1167 18.0422 19.1316C18.0753 19.1466 18.1126 19.1592 18.1541 19.1695C18.1957 19.1789 18.2424 19.1836 18.2943 19.1836C18.3595 19.1836 18.4176 19.1747 18.4686 19.1569C18.5196 19.1391 18.5625 19.1144 18.5975 19.0825C18.6334 19.0498 18.6607 19.011 18.6796 18.9661C18.6985 18.9212 18.708 18.8712 18.708 18.816C18.708 18.7552 18.6938 18.7056 18.6655 18.6672C18.6381 18.628 18.6017 18.5952 18.5564 18.569C18.5111 18.5428 18.4591 18.5209 18.4006 18.5031C18.342 18.4844 18.2825 18.4657 18.2221 18.447C18.1617 18.4273 18.1022 18.4049 18.0436 18.3796C17.9851 18.3544 17.9331 18.3216 17.8878 18.2814C17.8425 18.2412 17.8057 18.1911 17.7773 18.1313C17.7499 18.0705 17.7362 17.9957 17.7362 17.9068C17.7362 17.8357 17.7499 17.767 17.7773 17.7006C17.8057 17.6341 17.8463 17.5752 17.8991 17.5238C17.953 17.4723 18.0186 17.4312 18.096 17.4003C18.1744 17.3694 18.2641 17.354 18.3652 17.354C18.4785 17.354 18.5814 17.3718 18.674 17.4073C18.7675 17.4429 18.8496 17.4943 18.9204 17.5617L18.8539 17.6907Z" fill="#00A39D"/>
<path d="M19.6669 19.387H19.3921V17.3764H19.6669V19.387Z" fill="#00A39D"/>
<path d="M21.303 18.6406L20.9843 17.8226C20.9748 17.7983 20.9649 17.7702 20.9545 17.7384C20.9441 17.7057 20.9342 17.6711 20.9248 17.6346C20.9049 17.7104 20.8846 17.7735 20.8639 17.824L20.5452 18.6406H21.303ZM21.8752 19.387H21.6628C21.6382 19.387 21.6184 19.3809 21.6033 19.3687C21.5882 19.3566 21.5768 19.3412 21.5693 19.3224L21.3795 18.837H20.4687L20.2789 19.3224C20.2732 19.3393 20.2623 19.3542 20.2463 19.3673C20.2302 19.3804 20.2104 19.387 20.1868 19.387H19.9743L20.786 17.3764H21.0636L21.8752 19.387Z" fill="#00A39D"/>
<path d="M9.25789 11.145C9.4795 11.145 9.65977 11.1165 9.7987 11.0597C9.94093 11.0028 10.0517 10.9292 10.1311 10.8388C10.2105 10.7485 10.2651 10.6464 10.2949 10.5327C10.3246 10.4189 10.3395 10.3035 10.3395 10.1864C10.3395 10.0525 10.3213 9.93207 10.2849 9.825C10.2519 9.71793 10.1923 9.62758 10.1063 9.55397C10.0236 9.48036 9.91281 9.42348 9.77389 9.38333C9.63497 9.34318 9.45966 9.3231 9.24796 9.3231H8.07703V11.145H9.25789ZM8.07703 6.38198V8.18881H8.95027C9.1355 8.18881 9.30254 8.17543 9.45139 8.14866C9.60023 8.12189 9.72593 8.07505 9.82847 8.00813C9.93431 7.94121 10.0137 7.8492 10.0666 7.73208C10.1229 7.61497 10.151 7.46775 10.151 7.29041C10.151 7.11642 10.1295 6.97255 10.0865 6.85878C10.0435 6.74167 9.97731 6.64799 9.88801 6.57772C9.7987 6.50745 9.68458 6.45726 9.54566 6.42715C9.41004 6.39704 9.24796 6.38198 9.05942 6.38198H8.07703ZM9.05942 5.11218C9.55889 5.11218 9.98393 5.15902 10.3345 5.25271C10.6852 5.3464 10.9713 5.47857 11.1929 5.64922C11.4145 5.81986 11.5749 6.02731 11.6742 6.27156C11.7767 6.51582 11.828 6.78852 11.828 7.08966C11.828 7.25361 11.8048 7.41254 11.7585 7.56646C11.7122 7.71702 11.6394 7.85923 11.5402 7.99307C11.441 8.12356 11.3136 8.24402 11.1582 8.35443C11.0027 8.46485 10.8158 8.56022 10.5975 8.64052C11.0738 8.75763 11.4261 8.94668 11.6543 9.20766C11.8826 9.46865 11.9967 9.80659 11.9967 10.2215C11.9967 10.5327 11.9371 10.8221 11.8181 11.0898C11.699 11.3575 11.5237 11.5917 11.2921 11.7924C11.0639 11.9899 10.7811 12.1454 10.4437 12.2592C10.1063 12.3696 9.72097 12.4248 9.28766 12.4248H6.40002V5.11218H9.05942Z" fill="#00A39D"/>
<path d="M17.1482 6.60366C17.0986 6.68386 17.0457 6.74402 16.9895 6.78413C16.9365 6.82424 16.8671 6.84429 16.7811 6.84429C16.705 6.84429 16.6223 6.82089 16.533 6.7741C16.447 6.72397 16.3478 6.66882 16.2353 6.60867C16.1261 6.5485 16.0004 6.49503 15.8582 6.44825C15.716 6.39811 15.5539 6.37305 15.372 6.37305C15.0578 6.37305 14.8229 6.44156 14.6674 6.57859C14.5153 6.71227 14.4392 6.89442 14.4392 7.12503C14.4392 7.27209 14.4855 7.39407 14.5781 7.49099C14.6707 7.58792 14.7915 7.67147 14.9403 7.74166C15.0925 7.81185 15.2645 7.87702 15.4563 7.93718C15.6515 7.99399 15.8499 8.05916 16.0517 8.13269C16.2535 8.20288 16.4503 8.28643 16.6421 8.38336C16.8373 8.48028 17.0093 8.60394 17.1581 8.75434C17.3103 8.90473 17.4327 9.08855 17.5253 9.30579C17.6179 9.51969 17.6642 9.77871 17.6642 10.0828C17.6642 10.4204 17.6063 10.7362 17.4906 11.0303C17.3748 11.3245 17.2061 11.5818 16.9845 11.8024C16.7662 12.0196 16.495 12.1917 16.1708 12.3187C15.8499 12.4424 15.4844 12.5042 15.0743 12.5042C14.8494 12.5042 14.6195 12.4808 14.3846 12.4341C14.1531 12.3873 13.9282 12.3221 13.7099 12.2385C13.4915 12.1516 13.2865 12.0497 13.0946 11.9327C12.9028 11.8158 12.7357 11.6854 12.5935 11.5417L13.0897 10.7496C13.1294 10.6928 13.1806 10.646 13.2435 10.6092C13.3096 10.5691 13.3807 10.5491 13.4568 10.5491C13.556 10.5491 13.6553 10.5808 13.7545 10.6443C13.8571 10.7078 13.9712 10.778 14.0969 10.8549C14.2259 10.9318 14.3731 11.0019 14.5384 11.0654C14.7038 11.1289 14.899 11.1607 15.1239 11.1607C15.4282 11.1607 15.6647 11.0938 15.8334 10.9602C16.0021 10.8231 16.0864 10.6076 16.0864 10.3135C16.0864 10.143 16.0401 10.0043 15.9475 9.89735C15.8549 9.7904 15.7325 9.70184 15.5804 9.63165C15.4315 9.56147 15.2612 9.49964 15.0693 9.44616C14.8775 9.39268 14.6807 9.33419 14.4789 9.2707C14.2771 9.20385 14.0803 9.12364 13.8885 9.03006C13.6966 8.93314 13.5246 8.80781 13.3725 8.65407C13.2236 8.49699 13.1029 8.30314 13.0103 8.07253C12.9177 7.83858 12.8714 7.55115 12.8714 7.21026C12.8714 6.9362 12.9259 6.66883 13.0351 6.40813C13.1442 6.14745 13.3047 5.91517 13.5164 5.7113C13.7281 5.50742 13.9877 5.34533 14.2953 5.22501C14.6029 5.10135 14.9552 5.03952 15.3521 5.03952C15.5738 5.03952 15.7888 5.0579 15.9971 5.09467C16.2088 5.12809 16.409 5.17989 16.5975 5.25008C16.786 5.31692 16.9613 5.3988 17.1234 5.49573C17.2888 5.58931 17.436 5.69626 17.565 5.81658L17.1482 6.60366Z" fill="#00A39D"/>
<path fill-rule="evenodd" clip-rule="evenodd" d="M23.1421 4.80971C21.8545 4.68421 21.4017 5.39364 21.1492 5.74454C20.827 4.3417 20.2822 4.45232 19.6994 4.09893C20.5418 3.6097 20.7774 2.84909 20.7542 2.28577C21.5793 2.89108 22.1546 2.82613 22.8671 2.62985C22.5126 3.68845 22.7364 3.98724 23.1421 4.80971Z" fill="#F8AD3C"/>
<path d="M20.4491 12.4279H18.7051V4.94971C19.7964 5.09765 20.4508 6.00078 20.4491 6.95666V12.4279Z" fill="#00A39D"/>
</g>
<defs>
<clipPath id="clip0_142_1389">
<rect width="20.1143" height="17.3714" fill="white" transform="translate(6.40002 2.28577)"/>
</clipPath>
</defs>
</svg>
