<svg width="16" height="16" viewBox="0 0 16 16" fill="none" xmlns="http://www.w3.org/2000/svg">
<path fill-rule="evenodd" clip-rule="evenodd" d="M12.67 3.33333H12.6667V4C12.6667 4.73667 12.0747 5.33333 11.3333 5.33333C10.5967 5.33333 10 4.74133 10 4V3.33333H6V4C6 4.73667 5.408 5.33333 4.66667 5.33333C3.93 5.33333 3.33333 4.74133 3.33333 4V3.33333H3.33C2.59467 3.33333 2 3.92867 2 4.66267V12.6707C2.00018 13.0233 2.14038 13.3614 2.38978 13.6107C2.63919 13.86 2.97738 14 3.33 14H12.67C12.8446 14.0001 13.0176 13.9658 13.1789 13.899C13.3403 13.8322 13.4869 13.7343 13.6104 13.6109C13.7339 13.4874 13.8319 13.3409 13.8987 13.1795C13.9656 13.0182 14 12.8453 14 12.6707V4.66267C14 3.93 13.4047 3.33333 12.67 3.33333ZM6 8.66733H4.66667V7.33333H6V8.66733ZM6 11.334H4.66667V10H6V11.334ZM8.66667 8.66733H7.33333V7.33333H8.66667V8.66733ZM8.66667 11.334H7.33333V10H8.66667V11.334ZM11.3333 8.66733H10V7.33333H11.3333V8.66733ZM11.3333 11.334H10V10H11.3333V11.334Z" fill="#3B4963"/>
<path fill-rule="evenodd" clip-rule="evenodd" d="M10.6667 4V3.33333H12V4C12 4.17681 11.9298 4.34638 11.8047 4.4714C11.6797 4.59643 11.5101 4.66667 11.3333 4.66667C11.1565 4.66667 10.987 4.59643 10.8619 4.4714C10.7369 4.34638 10.6667 4.17681 10.6667 4ZM10.6667 2.66667C10.6667 2.48986 10.7369 2.32029 10.8619 2.19526C10.987 2.07024 11.1565 2 11.3333 2C11.5101 2 11.6797 2.07024 11.8047 2.19526C11.9298 2.32029 12 2.48986 12 2.66667V3.33333H10.6667V2.66667ZM4 2.66667C4 2.48986 4.07024 2.32029 4.19526 2.19526C4.32029 2.07024 4.48986 2 4.66667 2C4.84348 2 5.01305 2.07024 5.13807 2.19526C5.2631 2.32029 5.33333 2.48986 5.33333 2.66667V3.33333H4V2.66667ZM4 4V3.33333H5.33333V4C5.33333 4.17681 5.2631 4.34638 5.13807 4.4714C5.01305 4.59643 4.84348 4.66667 4.66667 4.66667C4.48986 4.66667 4.32029 4.59643 4.19526 4.4714C4.07024 4.34638 4 4.17681 4 4Z" fill="#3B4963"/>
</svg>
