<svg width="12" height="12" viewBox="0 0 12 12" fill="none" xmlns="http://www.w3.org/2000/svg">
<path fill-rule="evenodd" clip-rule="evenodd" d="M6 11.25C8.89949 11.25 11.25 8.89949 11.25 6C11.25 3.1005 8.89949 0.75 6 0.75C3.1005 0.75 0.75 3.1005 0.75 6C0.75 8.89949 3.1005 11.25 6 11.25Z" fill="#00E0A5"/>
<path d="M4.80433 7.29968L3.35711 5.78103L3.24891 5.66748L3.1403 5.78064L2.61053 6.33266L2.5112 6.43616L2.61016 6.54L4.69569 8.72848L4.80427 8.84243L4.91286 8.72848L9.38984 4.03049L9.48845 3.92701L9.38984 3.82353L8.8638 3.27152L8.75526 3.15762L8.64667 3.27147L4.80433 7.29968Z" fill="white" stroke="white" stroke-width="0.3"/>
</svg>
