<svg width="32" height="24" viewBox="0 0 32 24" fill="none" xmlns="http://www.w3.org/2000/svg">
<rect y="0.714348" width="32" height="22.8571" rx="4" fill="#108EE9"/>
<path fill-rule="evenodd" clip-rule="evenodd" d="M6.90721 8.48578H6.80055C5.91415 8.50445 5.04108 8.85911 4.39735 9.46925C3.64268 10.1679 3.20961 11.186 3.20001 12.2122V12.3076C3.21815 13.3124 3.63895 14.3071 4.37175 14.9983C5.02081 15.6255 5.91041 15.9908 6.81335 16.0058H6.91788C8.13815 15.9919 9.31255 15.3087 9.94721 14.2703C10.4901 13.4095 10.6571 12.3268 10.416 11.3396C10.2139 10.4879 9.70401 9.71191 8.99788 9.19351C8.39788 8.74551 7.65548 8.49965 6.90721 8.48578ZM5.25015 11.5413C5.59468 11.6421 5.96215 11.5808 6.29761 11.4725C6.48247 11.4116 6.66445 11.3419 6.84643 11.2723L6.84644 11.2723L6.84645 11.2723C7.14067 11.1596 7.4349 11.047 7.74134 10.9712C8.15148 10.8752 8.61228 10.9525 8.94081 11.2245C9.00581 11.287 9.00566 11.3772 9.00553 11.4627C9.00549 11.4838 9.00546 11.5047 9.00641 11.5248C9.00275 11.8001 9.00405 12.0755 9.00535 12.351C9.00727 12.7568 9.00919 13.1626 8.99521 13.568C8.9457 13.5469 8.89646 13.5246 8.84715 13.5022C8.64414 13.41 8.44003 13.3174 8.21174 13.3131C7.73566 13.2869 7.29558 13.4449 6.85465 13.6032C6.49587 13.732 6.13654 13.861 5.75681 13.8912C5.41228 13.9152 5.05228 13.8336 4.77281 13.6261C4.71556 13.5469 4.71842 13.4477 4.72121 13.3506C4.72235 13.3111 4.72347 13.272 4.72055 13.2347C4.72585 12.9882 4.7235 12.7413 4.72115 12.4944C4.71736 12.0963 4.71357 11.6982 4.74188 11.3019C4.80474 11.3299 4.86524 11.3632 4.92571 11.3965C5.02991 11.4539 5.13405 11.5113 5.25015 11.5413ZM12.4805 10.3586H12.4805C12.2918 10.3598 12.1032 10.361 11.9147 10.3587C11.9144 10.9918 11.9144 11.625 11.9144 12.2583C11.9144 12.8915 11.9144 13.5249 11.9141 14.1582C12.1243 14.1585 12.3343 14.1585 12.5443 14.1585C12.7543 14.1585 12.9643 14.1585 13.1744 14.1587C13.48 14.1593 13.7888 14.1006 14.0619 13.9593C14.7883 13.603 15.2091 12.7465 15.0699 11.9523C14.9547 11.1257 14.2325 10.4233 13.3936 10.3673C13.0894 10.3548 12.7849 10.3567 12.4805 10.3586ZM12.7085 13.03C12.7101 12.4119 12.7116 11.7938 12.7061 11.1758C12.7876 11.1783 12.8696 11.1769 12.9516 11.1754C13.131 11.1723 13.3107 11.1692 13.4864 11.2073C13.9243 11.3075 14.2619 11.7155 14.2928 12.1614C14.3392 12.6051 14.0816 13.0633 13.672 13.2446C13.45 13.3495 13.206 13.3444 12.9645 13.3394C12.8782 13.3376 12.7923 13.3358 12.7077 13.339L12.7085 13.03ZM16.4811 11.8953C16.5067 11.0713 17.2485 10.3311 18.0827 10.3593C18.9003 10.3508 19.6181 11.0751 19.6507 11.8831C19.6592 12.3473 19.6579 12.8117 19.6566 13.276V13.276V13.276V13.2761C19.6557 13.5698 19.6549 13.8635 19.6565 14.1572L19.656 14.1572H19.6557H19.6557H19.6556C19.3909 14.1577 19.1266 14.1583 18.8624 14.1572C18.8611 14.0212 18.8612 13.8852 18.8613 13.7492V13.749V13.7489V13.7489C18.8615 13.6131 18.8616 13.4774 18.8603 13.3417C18.5484 13.3433 18.2367 13.343 17.9252 13.3427H17.9251H17.9251H17.9251C17.707 13.3426 17.489 13.3424 17.2709 13.3428C17.2702 13.4442 17.2705 13.5457 17.2709 13.6472C17.2716 13.8185 17.2722 13.9898 17.2672 14.1609C17.0912 14.1567 16.9154 14.1571 16.7397 14.1576H16.7397H16.7397H16.7397C16.6519 14.1578 16.5641 14.1581 16.4763 14.1577C16.4772 13.8835 16.4765 13.6092 16.4758 13.3349C16.4745 12.8549 16.4733 12.3749 16.4811 11.8953ZM17.4741 11.4483C17.2577 11.6822 17.264 11.9978 17.2701 12.3002C17.2716 12.3771 17.2731 12.4531 17.2709 12.5267C17.4828 12.527 17.6947 12.5268 17.9066 12.5267H17.907C18.2248 12.5265 18.5426 12.5263 18.8603 12.5273C18.8583 12.454 18.86 12.3783 18.8617 12.3019L18.8617 12.3018C18.8684 12.0062 18.8753 11.6983 18.6715 11.4649C18.3872 11.0915 17.7685 11.083 17.4741 11.4483ZM21.0459 11.904C21.0693 11.1787 21.6363 10.5056 22.3557 10.3835C22.8912 10.2806 23.4651 10.4912 23.8139 10.9083C24.0837 11.2054 24.2213 11.6075 24.2213 12.0064C24.2224 12.4846 24.2221 12.9626 24.2217 13.4406C24.2215 13.6797 24.2213 13.9188 24.2213 14.1579C24.1314 14.1584 24.0414 14.1581 23.9514 14.1578H23.9513C23.7777 14.1572 23.6039 14.1565 23.4304 14.1622C23.4247 13.7558 23.4256 13.3493 23.4265 12.9428C23.4272 12.6301 23.4279 12.3174 23.4256 12.0048C23.4299 11.7147 23.2747 11.4256 23.0208 11.2816C22.7573 11.1238 22.4005 11.1472 22.1589 11.3371C21.9499 11.4934 21.8331 11.7536 21.8368 12.0128C21.8356 12.421 21.8358 12.829 21.8359 13.237V13.2387C21.8361 13.5451 21.8362 13.8514 21.8357 14.1579C21.739 14.1575 21.6422 14.1577 21.5454 14.1579C21.3761 14.1582 21.2067 14.1585 21.0373 14.1558C21.043 13.7939 21.042 13.432 21.0409 13.0701V13.0698C21.0398 12.6812 21.0387 12.2925 21.0459 11.904ZM25.8651 11.0954C26.1717 10.6175 26.7381 10.3092 27.3104 10.3636C27.9573 10.4036 28.5312 10.8964 28.7104 11.5124C28.7766 11.7204 28.7797 11.9377 28.7828 12.1547C28.7846 12.2789 28.7864 12.403 28.8 12.5252V14.1535C28.5968 14.1591 28.3936 14.1584 28.1904 14.1577C28.1227 14.1575 28.0549 14.1572 27.9872 14.1572C27.9869 14.0696 27.987 13.982 27.9872 13.8943C27.9875 13.7092 27.9878 13.524 27.9835 13.3391C27.6618 13.344 27.3399 13.3433 27.0179 13.3426H27.0179H27.0177C26.8108 13.3422 26.6038 13.3418 26.3968 13.3428C26.3965 13.4786 26.3965 13.6143 26.3965 13.7501C26.3965 13.8859 26.3965 14.0218 26.3963 14.1578H25.6016C25.6013 13.8076 25.6013 13.4576 25.6013 13.1077C25.6013 12.7578 25.6013 12.4079 25.6011 12.058C25.5973 11.721 25.6779 11.3786 25.8651 11.0954ZM26.5957 11.4538C26.3835 11.6868 26.3898 11.9999 26.3959 12.3C26.3975 12.377 26.399 12.4531 26.3968 12.5269C26.75 12.5272 27.1031 12.5271 27.4561 12.527H27.457L27.9867 12.5269C27.9843 12.4517 27.986 12.3741 27.9877 12.2956V12.2955C27.9939 12.0012 28.0005 11.6954 27.7963 11.4634C27.5093 11.0895 26.888 11.0847 26.5957 11.4538Z" fill="white"/>
</svg>
