<svg width="12" height="7" viewBox="0 0 12 7" fill="none" xmlns="http://www.w3.org/2000/svg">
<path d="M5.97791 6.93748C5.83056 6.93834 5.68448 6.90998 5.54807 6.85403C5.41165 6.79808 5.28757 6.71565 5.18295 6.61145L0.704285 2.11453C0.599889 2.00971 0.517077 1.88527 0.460579 1.74831C0.40408 1.61136 0.375 1.46457 0.375 1.31633C0.375 1.16809 0.40408 1.0213 0.460579 0.884345C0.517077 0.747389 0.599889 0.622948 0.704285 0.518126C0.808681 0.413305 0.932617 0.330155 1.06902 0.273426C1.20542 0.216697 1.35161 0.1875 1.49925 0.1875C1.64689 0.1875 1.79308 0.216697 1.92948 0.273426C2.06588 0.330155 2.18981 0.413305 2.29421 0.518126L5.97791 4.23933L9.67281 0.664276C9.77581 0.549279 9.90133 0.456857 10.0415 0.392792C10.1817 0.328727 10.3336 0.294396 10.4876 0.291946C10.6416 0.289496 10.7945 0.318979 10.9366 0.378553C11.0788 0.438127 11.2071 0.52651 11.3137 0.638174C11.4203 0.749837 11.5028 0.882379 11.556 1.02751C11.6092 1.17264 11.6321 1.32724 11.6231 1.48164C11.6141 1.63604 11.5735 1.78691 11.5038 1.92483C11.4341 2.06274 11.3368 2.18473 11.218 2.28317L6.73929 6.6227C6.53453 6.82092 6.26231 6.93346 5.97791 6.93748Z" fill="#191F2A"/>
</svg>
