<svg width="17" height="16" viewBox="0 0 17 16" fill="none" xmlns="http://www.w3.org/2000/svg">
<g clip-path="url(#clip0_142_3989)">
<path d="M13.4 6.69343C13.1761 5.55857 12.5651 4.53667 11.6714 3.80226C10.7777 3.06785 9.65674 2.6665 8.5 2.66676C6.57333 2.66676 4.9 3.7601 4.06667 5.3601C3.08682 5.46598 2.18067 5.93024 1.52233 6.66364C0.863981 7.39705 0.499886 8.34788 0.5 9.33343C0.5 11.5401 2.29333 13.3334 4.5 13.3334H13.1667C15.0067 13.3334 16.5 11.8401 16.5 10.0001C16.5 8.2401 15.1333 6.81343 13.4 6.69343ZM11.8333 8.66676L8.73333 11.7668C8.6 11.9001 8.39333 11.9001 8.26 11.7668L5.16667 8.66676H7.16667V6.0001H9.83333V8.66676H11.8333Z" fill="white"/>
</g>
<defs>
<clipPath id="clip0_142_3989">
<rect width="16" height="16" fill="white" transform="translate(0.5 9.15527e-05)"/>
</clipPath>
</defs>
</svg>
