<svg width="44" height="30" viewBox="0 0 44 30" fill="none" xmlns="http://www.w3.org/2000/svg">
<rect width="44" height="30" rx="15" fill="#050577"/>
<rect width="20" height="20" transform="translate(12 5)" fill="white" fill-opacity="0.01"/>
<path d="M19.5002 9.16871C19.2791 9.16871 19.0672 9.25651 18.9109 9.41279C18.7546 9.56907 18.6668 9.78103 18.6668 10.002C18.6668 10.2231 18.7546 10.435 18.9109 10.5913C19.0672 10.7476 19.2791 10.8354 19.5002 10.8354C19.7212 10.8354 19.9331 10.7476 20.0894 10.5913C20.2457 10.435 20.3335 10.2231 20.3335 10.002C20.3335 9.78103 20.2457 9.56907 20.0894 9.41279C19.9331 9.25651 19.7212 9.16871 19.5002 9.16871ZM17.1418 9.16871C17.314 8.68076 17.6333 8.25824 18.0557 7.95937C18.478 7.6605 18.9827 7.5 19.5002 7.5C20.0176 7.5 20.5223 7.6605 20.9447 7.95937C21.367 8.25824 21.6863 8.68076 21.8585 9.16871H27.8335C28.0545 9.16871 28.2665 9.25651 28.4228 9.41279C28.579 9.56907 28.6668 9.78103 28.6668 10.002C28.6668 10.2231 28.579 10.435 28.4228 10.5913C28.2665 10.7476 28.0545 10.8354 27.8335 10.8354H21.8585C21.6863 11.3233 21.367 11.7458 20.9447 12.0447C20.5223 12.3436 20.0176 12.5041 19.5002 12.5041C18.9827 12.5041 18.478 12.3436 18.0557 12.0447C17.6333 11.7458 17.314 11.3233 17.1418 10.8354H16.1668C15.9458 10.8354 15.7339 10.7476 15.5776 10.5913C15.4213 10.435 15.3335 10.2231 15.3335 10.002C15.3335 9.78103 15.4213 9.56907 15.5776 9.41279C15.7339 9.25651 15.9458 9.16871 16.1668 9.16871H17.1418ZM24.5002 14.1687C24.2791 14.1687 24.0672 14.2565 23.9109 14.4128C23.7546 14.5691 23.6668 14.781 23.6668 15.002C23.6668 15.2231 23.7546 15.435 23.9109 15.5913C24.0672 15.7476 24.2791 15.8354 24.5002 15.8354C24.7212 15.8354 24.9331 15.7476 25.0894 15.5913C25.2457 15.435 25.3335 15.2231 25.3335 15.002C25.3335 14.781 25.2457 14.5691 25.0894 14.4128C24.9331 14.2565 24.7212 14.1687 24.5002 14.1687ZM22.1418 14.1687C22.314 13.6808 22.6333 13.2582 23.0557 12.9594C23.478 12.6605 23.9827 12.5 24.5002 12.5C25.0176 12.5 25.5223 12.6605 25.9447 12.9594C26.367 13.2582 26.6863 13.6808 26.8585 14.1687H27.8335C28.0545 14.1687 28.2665 14.2565 28.4228 14.4128C28.579 14.5691 28.6668 14.781 28.6668 15.002C28.6668 15.2231 28.579 15.435 28.4228 15.5913C28.2665 15.7476 28.0545 15.8354 27.8335 15.8354H26.8585C26.6863 16.3233 26.367 16.7458 25.9447 17.0447C25.5223 17.3436 25.0176 17.5041 24.5002 17.5041C23.9827 17.5041 23.478 17.3436 23.0557 17.0447C22.6333 16.7458 22.314 16.3233 22.1418 15.8354H16.1668C15.9458 15.8354 15.7339 15.7476 15.5776 15.5913C15.4213 15.435 15.3335 15.2231 15.3335 15.002C15.3335 14.781 15.4213 14.5691 15.5776 14.4128C15.7339 14.2565 15.9458 14.1687 16.1668 14.1687H22.1418ZM19.5002 19.1687C19.2791 19.1687 19.0672 19.2565 18.9109 19.4128C18.7546 19.5691 18.6668 19.781 18.6668 20.002C18.6668 20.2231 18.7546 20.435 18.9109 20.5913C19.0672 20.7476 19.2791 20.8354 19.5002 20.8354C19.7212 20.8354 19.9331 20.7476 20.0894 20.5913C20.2457 20.435 20.3335 20.2231 20.3335 20.002C20.3335 19.781 20.2457 19.5691 20.0894 19.4128C19.9331 19.2565 19.7212 19.1687 19.5002 19.1687ZM17.1418 19.1687C17.314 18.6808 17.6333 18.2582 18.0557 17.9594C18.478 17.6605 18.9827 17.5 19.5002 17.5C20.0176 17.5 20.5223 17.6605 20.9447 17.9594C21.367 18.2582 21.6863 18.6808 21.8585 19.1687H27.8335C28.0545 19.1687 28.2665 19.2565 28.4228 19.4128C28.579 19.5691 28.6668 19.781 28.6668 20.002C28.6668 20.2231 28.579 20.435 28.4228 20.5913C28.2665 20.7476 28.0545 20.8354 27.8335 20.8354H21.8585C21.6863 21.3233 21.367 21.7458 20.9447 22.0447C20.5223 22.3436 20.0176 22.5041 19.5002 22.5041C18.9827 22.5041 18.478 22.3436 18.0557 22.0447C17.6333 21.7458 17.314 21.3233 17.1418 20.8354H16.1668C15.9458 20.8354 15.7339 20.7476 15.5776 20.5913C15.4213 20.435 15.3335 20.2231 15.3335 20.002C15.3335 19.781 15.4213 19.5691 15.5776 19.4128C15.7339 19.2565 15.9458 19.1687 16.1668 19.1687H17.1418Z" fill="white"/>
</svg>
