<svg width="32" height="23" viewBox="0 0 32 23" fill="none" xmlns="http://www.w3.org/2000/svg">
<rect y="6.10352e-05" width="32" height="22.8571" rx="4" fill="white"/>
<path fill-rule="evenodd" clip-rule="evenodd" d="M5.15958 8.75313C5.46306 8.70368 5.77443 8.70941 6.07934 8.73987C6.36204 8.79827 6.64725 8.86348 6.90666 8.99426C7.43157 9.24472 7.87837 9.65067 8.17612 10.1505C8.42299 10.6124 8.59282 11.1305 8.56738 11.6597C8.57455 12.746 7.88625 13.7812 6.91132 14.243C6.27927 14.5436 5.54404 14.5848 4.86864 14.42C4.41181 14.2796 3.9711 14.0524 3.63824 13.7034C3.32114 13.4093 3.08179 13.0345 2.92987 12.631C2.73173 12.1348 2.71382 11.583 2.79802 11.0602C2.95209 10.2838 3.43185 9.57185 4.11083 9.15908C4.42686 8.95091 4.79017 8.8273 5.15958 8.75313ZM4.75399 10.1473C4.5254 10.1706 4.27566 10.2508 4.14918 10.4572C4.00945 10.6549 3.99487 10.9022 3.98102 11.137L3.97755 11.1946C3.9747 11.2539 3.96941 11.313 3.96412 11.3722L3.96412 11.3722C3.95345 11.4916 3.94277 11.6111 3.95211 11.7313C3.95908 11.8126 3.96399 11.894 3.96891 11.9755C3.98119 12.1791 3.99348 12.3828 4.03775 12.5827C4.09257 12.8346 4.31937 13.0298 4.56947 13.0757C5.03557 13.1597 5.51039 13.1523 5.98236 13.145H5.98237L6.11195 13.1431C6.30508 13.1323 6.4982 13.1126 6.68918 13.0821C6.9751 13.0449 7.2277 12.812 7.27464 12.5253C7.35669 12.1738 7.37138 11.8112 7.34702 11.4526C7.30115 11.2226 7.13849 11.0151 6.91741 10.9309C6.81781 10.8828 6.70734 10.8831 6.59897 10.8834C6.57986 10.8834 6.56082 10.8835 6.54191 10.8832C6.32875 10.8835 6.11559 10.8834 5.90244 10.8833H5.90242C5.52944 10.8831 5.15651 10.8829 4.78373 10.8847C4.74087 10.8855 4.70088 10.8708 4.66123 10.8563C4.64652 10.8509 4.63186 10.8455 4.61712 10.841C4.61605 10.7607 4.61891 10.6407 4.72676 10.6385C5.00758 10.6322 5.28867 10.6341 5.56974 10.6359C5.93992 10.6384 6.31006 10.6408 6.6795 10.6246C6.63937 10.4382 6.52579 10.2437 6.33016 10.1921C6.15352 10.1448 5.97078 10.1208 5.78912 10.1039C5.73732 10.1033 5.68543 10.1023 5.6335 10.1013L5.63348 10.1013C5.3392 10.0957 5.04362 10.09 4.75399 10.1473ZM6.75474 11.7123C6.66051 11.6869 6.54764 11.7241 6.51468 11.8212C6.49399 11.933 6.52714 12.0407 6.56007 12.1477C6.5739 12.1926 6.58769 12.2374 6.59744 12.2823L6.68344 12.3322C6.72034 12.3107 6.75796 12.2913 6.79702 12.2745C6.80124 12.1799 6.82402 12.089 6.8468 11.9981C6.8569 11.9577 6.86701 11.9174 6.87549 11.8768C6.85793 11.8097 6.81386 11.7485 6.75474 11.7123Z" fill="#01ACD7"/>
<path fill-rule="evenodd" clip-rule="evenodd" d="M12.2486 9.646C11.9723 9.5378 11.6656 9.54998 11.3761 9.58581C10.7498 9.68255 10.2001 10.1605 10.0145 10.7664C9.93035 11.0065 9.93214 11.2655 9.95435 11.516C10.0292 12.1566 10.5112 12.7192 11.1228 12.9151C11.5563 13.0463 12.0565 13.0506 12.4567 12.8159C12.509 12.787 12.5565 12.7513 12.604 12.7155L12.604 12.7155L12.604 12.7155L12.604 12.7155L12.604 12.7155C12.6483 12.6822 12.6926 12.6488 12.7409 12.621L12.7416 12.6543V12.6543C12.7475 12.9184 12.7542 13.217 12.5538 13.4164C12.4195 13.5805 12.2163 13.6669 12.011 13.6984C11.5671 13.7797 11.0977 13.6282 10.7677 13.3243C10.6943 13.399 10.6175 13.4704 10.5406 13.5418L10.5406 13.5418C10.4163 13.6573 10.292 13.7727 10.1826 13.9023C10.528 14.229 10.9655 14.4648 11.4399 14.5275C11.9035 14.5859 12.4023 14.5576 12.8154 14.3193C13.1658 14.1248 13.4417 13.7926 13.5499 13.4053C13.6171 13.2123 13.6162 13.0061 13.6153 12.8044L13.6151 12.7704C13.6148 11.7023 13.6148 10.6346 13.6151 9.56646C13.4472 9.56438 13.2793 9.56447 13.1114 9.56457C12.9902 9.56463 12.8689 9.5647 12.7477 9.56395L12.7481 9.65196C12.7486 9.74731 12.7491 9.84267 12.747 9.93802C12.5975 9.81584 12.4324 9.70799 12.2486 9.646ZM11.1482 10.5769C11.2919 10.4493 11.4825 10.4006 11.6685 10.373C12.0386 10.3167 12.4549 10.4862 12.6445 10.8176C12.7209 10.9519 12.7177 11.1037 12.7146 11.254V11.254V11.2541V11.2541V11.2541C12.7135 11.3067 12.7124 11.3592 12.7147 11.4106C12.7459 11.7266 12.4997 12.0054 12.2177 12.1129C11.877 12.2412 11.4567 12.2498 11.1593 12.0129C10.7136 11.6786 10.7046 10.9158 11.1482 10.5769ZM19.861 9.56469C19.4905 9.56218 19.1043 9.6729 18.8374 9.94019L18.8306 9.83781L18.8305 9.83776L18.8305 9.83771L18.8305 9.83767L18.8305 9.83762C18.8267 9.77886 18.8229 9.72026 18.8184 9.66179C18.5267 9.65821 18.2351 9.65713 17.9434 9.66179C17.9438 10.5461 17.9437 11.4304 17.9437 12.3147C17.9436 12.9779 17.9436 13.6411 17.9438 14.3043C18.1487 14.3175 18.3541 14.3164 18.5595 14.3152H18.5595H18.5595H18.5596H18.5596H18.5596C18.6551 14.3147 18.7506 14.3141 18.846 14.315C18.8526 13.9054 18.8511 13.4955 18.8497 13.0856V13.0855V13.0855V13.0855V13.0854C18.8492 12.9454 18.8486 12.8054 18.8485 12.6654C19.492 13.1767 20.5164 13.1205 21.095 12.5339C21.7249 11.9022 21.7611 10.7765 21.1545 10.1172C20.8352 9.75029 20.3451 9.54749 19.861 9.56469ZM18.8907 10.8947C18.985 10.6113 19.2731 10.4422 19.5529 10.3866C19.8413 10.3282 20.1638 10.4009 20.3867 10.5973C20.7643 10.9406 20.7672 11.6002 20.411 11.9596C20.0538 12.3053 19.4217 12.2989 19.0667 11.9531C18.9155 11.8195 18.8363 11.6102 18.8495 11.4103C18.8525 11.3576 18.8511 11.3041 18.8497 11.2505C18.8465 11.1294 18.8433 11.008 18.8907 10.8947ZM15.3271 9.60871C15.8362 9.50623 16.3934 9.56786 16.8366 9.85128C17.1738 10.0548 17.4303 10.3848 17.545 10.7614C17.7023 11.2562 17.6317 11.8223 17.3371 12.253C17.0444 12.6869 16.5446 12.9527 16.0286 13.0025C15.7108 13.024 15.3823 13.0133 15.0816 12.8976C14.5836 12.7302 14.1658 12.3193 14.0189 11.8115C13.8613 11.3357 13.9344 10.7911 14.2045 10.3697C14.4546 9.97561 14.8738 9.70652 15.3271 9.60871ZM15.5403 10.3912C15.4134 10.4274 15.2948 10.4905 15.1909 10.5711C14.8312 10.8545 14.7434 11.4149 14.9996 11.7943C15.2923 12.277 16.0476 12.3723 16.4439 11.9681C16.6377 11.79 16.7298 11.5242 16.704 11.2637C16.7259 10.6861 16.0852 10.2207 15.5403 10.3912ZM23.8575 9.58612C23.3362 9.51769 22.7715 9.59042 22.339 9.90895C22.0893 10.1075 21.8757 10.3805 21.8335 10.7051C21.958 10.7264 22.0814 10.7533 22.2049 10.7803L22.2049 10.7803C22.3658 10.8154 22.5267 10.8504 22.6898 10.8731C22.7604 10.5897 23.0062 10.3644 23.2946 10.3178C23.4813 10.2855 23.6755 10.2952 23.8572 10.3504C24.0159 10.402 24.1366 10.5758 24.0671 10.7413C23.9376 10.8593 23.7615 10.895 23.5937 10.929L23.5937 10.929C23.5721 10.9334 23.5506 10.9378 23.5293 10.9423L23.442 10.9547C23.016 11.0149 22.5732 11.0774 22.2108 11.3235C21.7625 11.637 21.7607 12.3748 22.1753 12.7173C22.5175 13.0115 22.9994 13.0452 23.4286 12.9882C23.7257 12.9327 24.0248 12.804 24.2144 12.5593C24.2155 12.6197 24.2155 12.6801 24.2155 12.7405C24.2155 12.8009 24.2155 12.8614 24.2165 12.9219L24.4128 12.9214H24.4128H24.4128C24.6202 12.9207 24.8278 12.9201 25.0356 12.9233C25.0364 12.5186 25.0363 12.1139 25.0362 11.7093V11.7093V11.7092C25.0361 11.4058 25.036 11.1024 25.0363 10.799C25.0395 10.5528 24.9496 10.3131 24.8142 10.1103C24.5942 9.80146 24.2208 9.6456 23.8575 9.58612ZM22.7296 12.0383C22.6823 11.9262 22.7737 11.8155 22.865 11.7603C23.0493 11.6587 23.2567 11.6208 23.4637 11.583C23.7132 11.5374 23.9621 11.492 24.1692 11.3353C24.1673 11.3845 24.1688 11.436 24.1704 11.4883C24.1758 11.6646 24.1814 11.8491 24.0521 11.9806C23.802 12.23 23.4211 12.2759 23.0847 12.2544C22.9449 12.2461 22.7611 12.1978 22.7296 12.0383ZM25.3963 9.65929C25.2999 9.65947 25.2036 9.65964 25.1073 9.65964C25.3614 10.1907 25.6212 10.7191 25.8811 11.2476C26.1248 11.7434 26.3687 12.2393 26.6078 12.7374C26.4903 12.9959 26.3624 13.2497 26.2346 13.5034C26.0995 13.7716 25.9644 14.0398 25.8414 14.3136C25.9449 14.3132 26.0485 14.314 26.1521 14.3148C26.3824 14.3165 26.6128 14.3183 26.8429 14.3064C27.5978 12.7593 28.352 11.2122 29.1056 9.6643C28.767 9.6557 28.4287 9.65713 28.0905 9.66287C27.7659 10.3755 27.4373 11.0868 27.1069 11.7966C27.0095 11.5862 26.9111 11.3764 26.8127 11.1665C26.6518 10.8237 26.4911 10.4809 26.3348 10.1362C26.3098 10.0801 26.2822 10.0251 26.2547 9.97006C26.2041 9.86916 26.1535 9.76832 26.1188 9.66072C25.8779 9.65841 25.6371 9.65885 25.3963 9.65929Z" fill="#010101"/>
</svg>
