<svg width="16" height="16" viewBox="0 0 16 16" fill="none" xmlns="http://www.w3.org/2000/svg">
<path d="M6.5072 13C6.37541 13.0007 6.24477 12.9756 6.12276 12.9259C6.00075 12.8762 5.88978 12.803 5.79621 12.7104C5.70235 12.6176 5.62785 12.5072 5.57701 12.3855C5.52617 12.2639 5.5 12.1334 5.5 12.0016C5.5 11.8698 5.52617 11.7393 5.57701 11.6176C5.62785 11.4959 5.70235 11.3855 5.79621 11.2927L9.11082 8.00788L5.92639 4.7031C5.73988 4.51604 5.63519 4.26299 5.63519 3.99922C5.63519 3.73545 5.73988 3.4824 5.92639 3.29533C6.01948 3.20175 6.13024 3.12747 6.25227 3.07679C6.3743 3.0261 6.50518 3 6.63738 3C6.76958 3 6.90046 3.0261 7.02249 3.07679C7.14452 3.12747 7.25528 3.20175 7.34837 3.29533L11.2137 7.28901C11.3972 7.47565 11.5 7.72657 11.5 7.98791C11.5 8.24925 11.3972 8.50017 11.2137 8.6868L7.20817 12.6805C7.11829 12.7773 7.01007 12.8553 6.88975 12.9102C6.76944 12.965 6.63941 12.9955 6.5072 13Z" fill="#3B4963"/>
</svg>
