<svg width="16" height="16" viewBox="0 0 16 16" fill="none" xmlns="http://www.w3.org/2000/svg">
<path d="M13.3156 12.3121H6.67736C6.67484 12.259 6.67099 12.2147 6.67084 12.1705C6.67055 11.3524 6.6704 10.5342 6.67069 9.71614C6.67069 9.37422 6.84018 9.20281 7.17869 9.20281C8.77025 9.20251 10.3618 9.20133 11.9532 9.20311C13.2242 9.20459 14.198 10.1782 14.2011 11.4492C14.203 12.1748 14.2027 12.9006 14.2005 13.6262C14.1997 13.8707 14.0319 14.059 13.804 14.083C13.5873 14.1058 13.3811 13.9607 13.3291 13.744C13.3163 13.691 13.3162 13.6341 13.316 13.579C13.315 13.1631 13.3154 12.7474 13.3154 12.3121H13.3156Z" fill="#3B4963"/>
<path d="M2.68351 10.5374H5.77773V12.304H2.68351C2.68351 12.4785 2.68351 12.6385 2.68351 12.7985C2.68351 13.0713 2.68529 13.3439 2.68292 13.6166C2.6807 13.887 2.49166 14.0846 2.24025 14.0845C1.98914 14.0845 1.79818 13.8861 1.79803 13.616C1.79714 11.2682 1.79714 8.92017 1.79803 6.57232C1.79803 6.29173 1.98751 6.09306 2.24529 6.09573C2.50099 6.0984 2.68307 6.29854 2.68321 6.58254C2.68396 7.83973 2.68351 9.09692 2.68351 10.354C2.68351 10.4085 2.68351 10.4631 2.68351 10.5374Z" fill="#0D0DCD"/>
<path d="M8.8856 5.65108C8.8856 5.94457 8.88634 6.21701 8.88545 6.48931C8.88427 6.80249 8.70812 6.98116 8.39834 6.98249C8.12634 6.98368 7.8542 6.98442 7.58205 6.9822C7.29953 6.97983 7.11627 6.79538 7.1139 6.51212C7.11168 6.23953 7.11257 5.96694 7.11168 5.69434C7.11168 5.68575 7.10694 5.67731 7.09938 5.65108C6.84353 5.65108 6.58249 5.65108 6.32145 5.65108C5.94679 5.65094 5.78471 5.48768 5.78457 5.11034C5.78457 4.86546 5.78397 4.62057 5.78457 4.37568C5.78545 4.05286 5.95908 3.87671 6.27805 3.87568C6.54975 3.87479 6.82145 3.87553 7.11345 3.87553C7.11345 3.79301 7.11345 3.71657 7.11345 3.64012C7.11345 3.42753 7.11138 3.21494 7.11405 3.00249C7.1176 2.73346 7.29908 2.54797 7.56545 2.54471C7.85597 2.54116 8.14649 2.54101 8.43701 2.54471C8.69434 2.54812 8.88071 2.73449 8.88427 2.99271C8.88827 3.28249 8.88516 3.57227 8.88516 3.87523C9.1696 3.87523 9.44042 3.87479 9.71123 3.87523C10.0392 3.87597 10.2135 4.05079 10.2142 4.38027C10.2148 4.63434 10.2148 4.88857 10.2142 5.14264C10.2135 5.47983 10.041 5.65005 9.70012 5.65049C9.4336 5.65094 9.16723 5.65049 8.88531 5.65049L8.8856 5.65108Z" fill="#0D0DCD"/>
<path d="M4.89333 9.64578C4.16282 9.64341 3.56771 9.04252 3.57008 8.30918C3.5723 7.57718 4.17215 6.98104 4.904 6.98341C5.63511 6.98578 6.22933 7.58592 6.22711 8.31985C6.22489 9.05229 5.62548 9.64815 4.89333 9.64578Z" fill="#0D0DCD"/>
</svg>
