<svg width="26" height="25" viewBox="0 0 26 25" fill="none" xmlns="http://www.w3.org/2000/svg">
<rect x="1" y="7.62939e-05" width="24" height="24" rx="3" fill="white" fill-opacity="0.01"/>
<rect x="1" y="7.62939e-05" width="24" height="24" rx="3" stroke="#E9E9E9"/>
<rect width="24" height="24" transform="translate(1 7.62939e-05)" fill="white" fill-opacity="0.01"/>
<path fill-rule="evenodd" clip-rule="evenodd" d="M14.706 9.69808C14.7992 9.60617 14.8733 9.49664 14.9238 9.37587C14.9743 9.2551 15.0003 9.12549 15.0003 8.99458C15.0003 8.86367 14.9743 8.73407 14.9238 8.6133C14.8733 8.49253 14.7992 8.383 14.706 8.29108C14.517 8.10452 14.2621 7.99991 13.9965 7.99991C13.7309 7.99991 13.4761 8.10452 13.287 8.29108L10.322 11.2311C10.2198 11.3324 10.1387 11.453 10.0834 11.5858C10.028 11.7187 9.99951 11.8612 9.99951 12.0051C9.99951 12.149 10.028 12.2915 10.0834 12.4243C10.1387 12.5572 10.2198 12.6778 10.322 12.7791L13.277 15.7091C13.4661 15.896 13.7212 16.0008 13.987 16.0008C14.2529 16.0008 14.508 15.896 14.697 15.7091C14.7902 15.6172 14.8643 15.5076 14.9148 15.3869C14.9653 15.2661 14.9913 15.1365 14.9913 15.0056C14.9913 14.8747 14.9653 14.7451 14.9148 14.6243C14.8643 14.5035 14.7902 14.394 14.697 14.3021L12.379 12.0051L14.706 9.69808Z" fill="#A5ADBA"/>
</svg>
