<svg width="24" height="24" viewBox="0 0 24 24" fill="none" xmlns="http://www.w3.org/2000/svg">
<path d="M14.6571 19.4998C14.4382 19.499 14.2217 19.4575 14.0207 19.3776C13.8196 19.2977 13.6381 19.1812 13.4871 19.035L7.21452 13.0375C6.91678 12.7573 6.75 12.3804 6.75 11.988C6.75 11.5955 6.91678 11.2187 7.21452 10.9384L13.7146 4.94095C13.8661 4.80115 14.046 4.69026 14.2439 4.6146C14.4419 4.53894 14.6541 4.5 14.8683 4.5C15.0826 4.5 15.2948 4.53894 15.4927 4.6146C15.6907 4.69026 15.8706 4.80115 16.0221 4.94095C16.1736 5.08075 16.2938 5.24672 16.3758 5.42937C16.4578 5.61203 16.5 5.8078 16.5 6.0055C16.5 6.20321 16.4578 6.39898 16.3758 6.58163C16.2938 6.76429 16.1736 6.93026 16.0221 7.07005L10.6596 12.003L15.8271 16.9509C16.1298 17.2318 16.2996 17.6118 16.2996 18.0079C16.2996 18.4041 16.1298 18.7841 15.8271 19.065C15.6733 19.2058 15.4906 19.3168 15.2897 19.3914C15.0888 19.4661 14.8737 19.5029 14.6571 19.4998Z" fill="#0D0DCD"/>
</svg>
