<svg width="20" height="20" viewBox="0 0 20 20" fill="none" xmlns="http://www.w3.org/2000/svg">
<path d="M15.8333 4.16699L11.3333 8.66699M15.8333 4.16699H11.6666M15.8333 4.16699V8.33366M4.16663 11.667C4.16663 12.7721 4.60561 13.8319 5.38701 14.6133C6.16842 15.3947 7.22822 15.8337 8.33329 15.8337C9.43836 15.8337 10.4982 15.3947 11.2796 14.6133C12.061 13.8319 12.5 12.7721 12.5 11.667C12.5 10.5619 12.061 9.50212 11.2796 8.72071C10.4982 7.93931 9.43836 7.50033 8.33329 7.50033C7.22822 7.50033 6.16842 7.93931 5.38701 8.72071C4.60561 9.50212 4.16663 10.5619 4.16663 11.667Z" stroke="#3B4963" stroke-width="2" stroke-linecap="round" stroke-linejoin="round"/>
</svg>
