<svg width="32" height="24" viewBox="0 0 32 24" fill="none" xmlns="http://www.w3.org/2000/svg">
<rect y="0.428635" width="32" height="22.8571" rx="4" fill="#003D79"/>
<path fill-rule="evenodd" clip-rule="evenodd" d="M2.31464 12.5343C2.31464 12.1244 2.30742 11.7804 2.28577 11.4737H3.03702L3.07224 12.0007H3.09332C3.2636 11.7222 3.57498 11.3929 4.15582 11.3929C4.60918 11.3929 4.9633 11.6569 5.11178 12.0518H5.12636C5.24697 11.8543 5.38815 11.7081 5.55092 11.6053C5.74234 11.4665 5.96199 11.3929 6.2453 11.3929C6.81884 11.3929 7.39925 11.7952 7.39925 12.9366V15.0361H6.54947V13.0685C6.54947 12.476 6.35147 12.1244 5.93384 12.1244C5.63588 12.1244 5.41609 12.3443 5.32464 12.6005C5.30313 12.688 5.2819 12.7978 5.2819 12.8995V15.0361H4.43184V12.9731C4.43184 12.476 4.24092 12.1244 3.83714 12.1244C3.51132 12.1244 3.29203 12.3882 3.21393 12.6364C3.17828 12.7248 3.16399 12.8269 3.16399 12.9291V15.0361H2.31464V12.5343Z" fill="white"/>
<path fill-rule="evenodd" clip-rule="evenodd" d="M10.71 14.1803C10.71 14.502 10.7242 14.816 10.7596 15.0361H9.97321L9.91677 14.6412H9.89526C9.6829 14.9194 9.32171 15.1166 8.87557 15.1166C8.18133 15.1166 7.79199 14.5976 7.79199 14.056C7.79199 13.1558 8.56367 12.7027 9.8386 12.7099V12.6512C9.8386 12.417 9.74642 12.0295 9.13744 12.0295C8.79732 12.0295 8.44306 12.1393 8.20948 12.2927L8.03928 11.708C8.29473 11.5467 8.74131 11.3929 9.2862 11.3929C10.3915 11.3929 10.71 12.1176 10.71 12.8927V14.1803ZM9.86003 13.2953C9.24397 13.2805 8.65628 13.4195 8.65628 13.9609C8.65628 14.3117 8.87578 14.473 9.15209 14.473C9.4987 14.473 9.75407 14.2388 9.83174 13.9828C9.85281 13.917 9.86003 13.8435 9.86003 13.7852V13.2953Z" fill="white"/>
<path fill-rule="evenodd" clip-rule="evenodd" d="M11.3124 12.5343C11.3124 12.1244 11.3046 11.7804 11.284 11.4737H12.0482L12.091 12.0077H12.1119C12.2608 11.73 12.6362 11.3929 13.2097 11.3929C13.8119 11.3929 14.4351 11.7952 14.4351 12.922V15.0361H13.5641V13.0247C13.5641 12.5123 13.38 12.1244 12.9054 12.1244C12.5583 12.1244 12.3176 12.3805 12.2253 12.6513C12.1974 12.732 12.1901 12.842 12.1901 12.9437V15.0361H11.3124V12.5343Z" fill="white"/>
<path fill-rule="evenodd" clip-rule="evenodd" d="M18.2122 10.0422V14.0336C18.2122 14.3993 18.2261 14.795 18.2403 15.0362H17.4612L17.4263 14.473H17.4119C17.2064 14.8682 16.7879 15.1167 16.2856 15.1167C15.4644 15.1167 14.8126 14.3926 14.8126 13.2953C14.8054 12.1027 15.5278 11.393 16.3563 11.393C16.8307 11.393 17.171 11.5981 17.3265 11.8616H17.3409V10.0422H18.2122ZM17.3405 12.9581C17.3405 12.8857 17.3332 12.7975 17.3196 12.7246C17.2415 12.3735 16.9652 12.088 16.5685 12.088C16.0091 12.088 15.6974 12.6003 15.6974 13.266C15.6974 13.9169 16.0091 14.3925 16.5615 14.3925C16.9154 14.3925 17.2272 14.1439 17.3121 13.7563C17.3332 13.6754 17.3405 13.5878 17.3405 13.4923V12.9581Z" fill="white"/>
<path fill-rule="evenodd" clip-rule="evenodd" d="M18.8278 15.0361H19.7068V11.4739H18.8278V15.0361Z" fill="white"/>
<path fill-rule="evenodd" clip-rule="evenodd" d="M20.3223 12.6219C20.3223 12.1393 20.315 11.795 20.2938 11.4734H21.0518L21.0795 12.1535H21.1089C21.2786 11.6488 21.6824 11.4734 22.0505 11.4734C22.1353 11.4734 22.1848 11.4585 22.2558 11.4734V12.2637C22.1848 12.2491 22.1071 12.2345 22.0008 12.2345C21.583 12.2345 21.2995 12.5122 21.2217 12.9143C21.2079 12.9948 21.1936 13.0903 21.1936 13.1932V15.036H20.3223V12.6219Z" fill="white"/>
<path fill-rule="evenodd" clip-rule="evenodd" d="M22.659 15.0361H23.5368V11.4739H22.659V15.0361Z" fill="white"/>
<path fill-rule="evenodd" clip-rule="evenodd" d="M22.4517 7.16675C21.9245 7.48213 20.6808 8.21889 20.2165 8.49326C19.9336 8.64215 19.2783 8.70716 18.9076 8.19094C18.901 8.18162 18.4146 7.55392 18.3948 7.53029C18.3808 7.51359 18.0664 7.03188 17.3658 7.01682C17.2623 7.01429 16.7477 7.01145 16.2455 7.30625C15.5781 7.70013 14.0258 8.6168 14.0258 8.6168C14.0253 8.6168 14.0253 8.61762 14.0245 8.61762C13.3865 8.99473 12.8893 9.28833 12.8893 9.28833L13.4767 10.0335C13.7515 10.386 14.3711 10.6586 14.9085 10.34C14.9085 10.34 16.8941 9.15227 16.9014 9.14884C17.7602 8.66236 18.4228 8.66236 18.8626 8.84338C19.2573 9.01568 19.6008 9.44498 19.6008 9.44498C19.6008 9.44498 20.0496 10.0195 20.1288 10.12C20.3841 10.4447 20.8068 10.3171 20.8068 10.3171C20.8068 10.3171 20.9635 10.2988 21.1996 10.154C21.1996 10.154 23.1229 9.00211 23.1241 9.00174C23.7348 8.63164 24.2949 8.56252 24.5812 8.58974C25.4778 8.67391 25.7564 9.32091 26.1452 9.77228C26.3741 10.0378 26.5807 10.1885 26.8966 10.1809C27.1042 10.1764 27.3387 10.0463 27.3733 10.0229L29.6764 8.64998C29.6764 8.64998 29.4401 8.28234 28.9561 7.71034C28.523 7.20001 28.0629 7.43091 27.6961 7.61857C27.542 7.6973 26.9836 8.08096 26.4304 8.34862C26.0362 8.53926 25.47 8.48193 25.1597 8.08589C25.1412 8.0618 24.6392 7.43404 24.5864 7.3568C24.3838 7.09466 23.9885 6.85988 23.4818 6.85988C23.1738 6.85988 22.8242 6.94666 22.4517 7.16675Z" fill="url(#paint0_linear_142_4132)"/>
<defs>
<linearGradient id="paint0_linear_142_4132" x1="12.8893" y1="10.4811" x2="29.6764" y2="10.4811" gradientUnits="userSpaceOnUse">
<stop stop-color="#FFCA06"/>
<stop offset="0.330844" stop-color="#FBAA18"/>
<stop offset="0.694742" stop-color="#FFC907"/>
<stop offset="1" stop-color="#FAA619"/>
</linearGradient>
</defs>
</svg>
