<svg width="16" height="16" viewBox="0 0 16 16" fill="none" xmlns="http://www.w3.org/2000/svg">
<path d="M2.66659 4.16699C2.66659 3.76917 2.82462 3.38764 3.10593 3.10633C3.38723 2.82503 3.76876 2.66699 4.16659 2.66699H11.8333C12.0302 2.66699 12.2253 2.70579 12.4073 2.78117C12.5893 2.85655 12.7546 2.96704 12.8939 3.10633C13.0332 3.24562 13.1437 3.41098 13.2191 3.59297C13.2945 3.77496 13.3333 3.97001 13.3333 4.16699V6.89166C12.8345 6.6546 12.2678 6.60213 11.734 6.74359C11.2001 6.88504 10.7338 7.21125 10.4179 7.6642C10.1019 8.11714 9.95688 8.66747 10.0085 9.21729C10.0602 9.76712 10.3052 10.2808 10.6999 10.667H4.16659C3.76876 10.667 3.38723 10.509 3.10593 10.2277C2.82462 9.94635 2.66659 9.56482 2.66659 9.16699V4.16699ZM8.66659 12.515C8.66659 12.209 8.74059 11.921 8.87192 11.667H1.83325C1.70064 11.667 1.57347 11.7197 1.4797 11.8134C1.38593 11.9072 1.33325 12.0344 1.33325 12.167C1.33325 12.2996 1.38593 12.4268 1.4797 12.5205C1.57347 12.6143 1.70064 12.667 1.83325 12.667H8.66792L8.66659 12.5837V12.515ZM13.9999 9.00033C13.9999 9.44235 13.8243 9.86628 13.5118 10.1788C13.1992 10.4914 12.7753 10.667 12.3333 10.667C11.8912 10.667 11.4673 10.4914 11.1547 10.1788C10.8422 9.86628 10.6666 9.44235 10.6666 9.00033C10.6666 8.5583 10.8422 8.13438 11.1547 7.82181C11.4673 7.50925 11.8912 7.33366 12.3333 7.33366C12.7753 7.33366 13.1992 7.50925 13.5118 7.82181C13.8243 8.13438 13.9999 8.5583 13.9999 9.00033ZM15.3333 12.5837C15.3333 13.621 14.4759 14.667 12.3333 14.667C10.1906 14.667 9.33325 13.625 9.33325 12.5837V12.515C9.33325 11.8617 9.86259 11.3337 10.5153 11.3337H14.1513C14.8046 11.3337 15.3333 11.8623 15.3333 12.515V12.5837Z" fill="#3B4963"/>
</svg>
