<svg width="16" height="16" viewBox="0 0 16 16" fill="none" xmlns="http://www.w3.org/2000/svg">
<path d="M5.66661 4.4C5.66661 3.074 6.71078 2 7.99994 2C9.2891 2 10.3333 3.074 10.3333 4.4C10.3333 5.726 9.2891 6.8 7.99994 6.8C6.71078 6.8 5.66661 5.726 5.66661 4.4ZM10.9166 14H11.4999C12.1416 14 12.6666 13.46 12.6666 12.8V9.932C12.6666 9.26 12.3108 8.642 11.7274 8.336C11.4766 8.204 11.2083 8.078 10.9166 7.964V14ZM8.19827 11L9.74993 7.598C9.20743 7.472 8.6241 7.4 7.99994 7.4C6.52411 7.4 5.25245 7.82 4.27245 8.336C3.98782 8.48679 3.74938 8.71576 3.5836 8.99749C3.41781 9.27922 3.33117 9.60269 3.33329 9.932V14H4.69828C4.56995 13.73 4.49995 13.424 4.49995 13.1C4.49995 11.942 5.41578 11 6.54161 11H8.19827ZM6.83328 14L7.65577 12.2H6.54161C6.05745 12.2 5.66661 12.602 5.66661 13.1C5.66661 13.598 6.05745 14 6.54161 14H6.83328Z" fill="#3B4963"/>
</svg>
