<svg width="32" height="24" viewBox="0 0 32 24" fill="none" xmlns="http://www.w3.org/2000/svg">
<rect y="0.857204" width="32" height="22.8571" rx="4" fill="#4C3494"/>
<path fill-rule="evenodd" clip-rule="evenodd" d="M26.1418 9.52468C25.39 8.86079 24.3563 8.55053 23.362 8.64537C23.1135 8.66803 22.8671 8.71223 22.6279 8.78302C21.7516 9.03509 20.9831 9.63547 20.5243 10.4227C19.9074 11.461 19.8335 12.7935 20.3097 13.9006C20.6633 14.7345 21.3392 15.4267 22.1679 15.7938C23.1091 16.2106 24.2228 16.2232 25.1724 15.8256C25.6564 15.622 26.0953 15.3109 26.4473 14.9212C27.0899 14.2192 27.4318 13.2613 27.4099 12.3129C27.4044 11.2609 26.9427 10.2124 26.1418 9.52468ZM21.8367 10.8416C22.19 10.3148 22.7728 9.94745 23.4037 9.86911C23.9039 9.80113 24.4284 9.90073 24.8618 10.1629C25.2781 10.4099 25.6035 10.7974 25.7979 11.2391C26.182 12.1204 26.0959 13.2126 25.5159 13.9898C25.2409 14.358 24.8548 14.6451 24.4164 14.7866C23.8658 14.9659 23.2459 14.9273 22.7244 14.6747C22.3131 14.4769 21.9693 14.149 21.7413 13.7545C21.2315 12.8688 21.2609 11.6899 21.8367 10.8416ZM9.98536 9.03336C9.30692 8.68169 8.51741 8.56418 7.7626 8.66434C7.03492 8.75806 6.33549 9.07364 5.79274 9.56883C5.236 10.0668 4.84516 10.7425 4.67618 11.469C4.47223 12.3316 4.56623 13.2657 4.95651 14.0633C5.3149 14.8084 5.93766 15.423 6.68828 15.7702C7.43163 16.116 8.28856 16.1988 9.0887 16.0307C9.85751 15.8706 10.5676 15.4487 11.0793 14.8534C11.5672 14.2911 11.871 13.5768 11.9563 12.8385C12.0389 12.15 11.9368 11.4391 11.6561 10.8043C11.3235 10.0464 10.7245 9.40713 9.98536 9.03336ZM6.96749 10.2666C7.26685 10.0504 7.62187 9.91439 7.98753 9.86739C8.42537 9.81087 8.88111 9.88026 9.27699 10.0781C9.74308 10.3055 10.1171 10.7036 10.3373 11.1714C10.5874 11.6929 10.6554 12.2941 10.5611 12.8626C10.4741 13.3813 10.2372 13.8818 9.85835 14.2511C9.5327 14.5798 9.09961 14.7989 8.64275 14.8697C8.08321 14.9578 7.48926 14.8366 7.02037 14.5155C6.53609 14.1923 6.19617 13.6767 6.04929 13.1169C5.90437 12.5641 5.92255 11.9665 6.11196 11.4265C6.27311 10.9666 6.5691 10.5503 6.96749 10.2666ZM12.2941 8.83141L12.2937 8.83141C12.2936 9.09849 12.2936 9.36569 12.2937 9.63293C12.2937 9.76657 12.2937 9.90021 12.2937 10.0339C12.475 10.0343 12.6561 10.0342 12.8373 10.0342C12.8978 10.0342 12.9582 10.0341 13.0186 10.0341C13.4669 11.0653 13.9146 12.0968 14.3622 13.1282C14.6874 13.8774 15.0126 14.6265 15.3379 15.3755C15.4893 15.723 15.8074 15.9941 16.1775 16.08C16.3122 16.1152 16.4511 16.1137 16.5895 16.1123C16.6325 16.1119 16.6755 16.1115 16.7183 16.1121C17.1431 15.1116 17.5692 14.1116 17.9954 13.1116C18.5034 11.9198 19.0113 10.728 19.5168 9.53531C19.5297 9.39018 19.5277 9.24365 19.5258 9.09712C19.5246 9.00835 19.5234 8.91958 19.5255 8.83113H17.176C17.1757 9.23232 17.1754 9.63323 17.176 10.0341C17.2783 10.0343 17.3805 10.0342 17.4828 10.0342C17.6192 10.0341 17.7556 10.0341 17.8919 10.0344C17.7049 10.4926 17.5183 10.951 17.3317 11.4094C16.9699 12.2984 16.6081 13.1874 16.243 14.0748L14.5369 10.0344C14.6572 10.034 14.7776 10.0341 14.898 10.0341C15.0184 10.0342 15.1388 10.0343 15.2593 10.0339V8.83141C14.271 8.83085 13.2827 8.83113 12.2941 8.83141Z" fill="white"/>
</svg>
