<svg width="24" height="24" viewBox="0 0 24 24" fill="none" xmlns="http://www.w3.org/2000/svg">
<path d="M3.5 6.25V8H8.129C8.32785 7.99983 8.51848 7.92069 8.659 7.78L10.189 6.25L8.659 4.72C8.51848 4.57931 8.32785 4.50017 8.129 4.5H5.25C4.78587 4.5 4.34075 4.68437 4.01256 5.01256C3.68437 5.34075 3.5 5.78587 3.5 6.25ZM2 6.25C2 5.38805 2.34241 4.5614 2.9519 3.9519C3.5614 3.34241 4.38805 3 5.25 3H8.129C8.72539 3.00026 9.29728 3.23729 9.719 3.659L11.562 5.5H18.751C19.6128 5.50027 20.4392 5.84279 21.0485 6.45226C21.6577 7.06172 22 7.88822 22 8.75V13.5C21.5673 13.1754 21.0409 13 20.5 13V8.75C20.5 8.28587 20.3156 7.84075 19.9874 7.51256C19.6592 7.18437 19.2141 7 18.75 7H11.56L9.72 8.841C9.51107 9.04993 9.26303 9.21566 8.99004 9.32874C8.71706 9.44181 8.42447 9.5 8.129 9.5H3.5V17.75C3.5 18.716 4.284 19.5 5.25 19.5H11.041C11.0143 19.6633 11.0007 19.83 11 20C11 20.328 11.036 20.666 11.116 21H5.25C4.38805 21 3.5614 20.6576 2.9519 20.0481C2.34241 19.4386 2 18.612 2 17.75V6.25ZM15.5 17C16.0304 17 16.5391 16.7893 16.9142 16.4142C17.2893 16.0391 17.5 15.5304 17.5 15C17.5 14.4696 17.2893 13.9609 16.9142 13.5858C16.5391 13.2107 16.0304 13 15.5 13C14.9696 13 14.4609 13.2107 14.0858 13.5858C13.7107 13.9609 13.5 14.4696 13.5 15C13.5 15.5304 13.7107 16.0391 14.0858 16.4142C14.4609 16.7893 14.9696 17 15.5 17ZM15.5 23C18.067 23 19 21.48 19 20C19 19.4696 18.7893 18.9609 18.4142 18.5858C18.0391 18.2107 17.5304 18 17 18H14C13.4696 18 12.9609 18.2107 12.5858 18.5858C12.2107 18.9609 12 19.4696 12 20C12 21.48 12.933 23 15.5 23ZM19.507 21.978C19.663 21.992 19.8273 21.9993 20 22C22.2 22 23 20.784 23 19.6C23 19.1757 22.8314 18.7687 22.5314 18.4686C22.2313 18.1686 21.8243 18 21.4 18H19.236C19.711 18.53 20 19.232 20 20C20 20.656 19.856 21.35 19.507 21.978ZM22 15.5C22 15.8978 21.842 16.2794 21.5607 16.5607C21.2794 16.842 20.8978 17 20.5 17C20.1022 17 19.7206 16.842 19.4393 16.5607C19.158 16.2794 19 15.8978 19 15.5C19 15.1022 19.158 14.7206 19.4393 14.4393C19.7206 14.158 20.1022 14 20.5 14C20.8978 14 21.2794 14.158 21.5607 14.4393C21.842 14.7206 22 15.1022 22 15.5Z" fill="black"/>
</svg>
