<svg width="68" height="12" viewBox="0 0 68 12" fill="none" xmlns="http://www.w3.org/2000/svg">
<path opacity="0.35" d="M43.5 2.99992C43.5 1.8033 44.47 0.833252 45.6667 0.833252H62.3333C63.53 0.833252 64.5 1.8033 64.5 2.99992V8.99992C64.5 10.1965 63.53 11.1666 62.3333 11.1666H45.6667C44.47 11.1666 43.5 10.1965 43.5 8.99992V2.99992Z" fill="black" stroke="black"/>
<path opacity="0.4" d="M66 4V8C66.8047 7.66122 67.328 6.87313 67.328 6C67.328 5.12687 66.8047 4.33878 66 4Z" fill="black"/>
<path d="M45 3.66659C45 2.93021 45.597 2.33325 46.3333 2.33325H61.6667C62.403 2.33325 63 2.93021 63 3.66659V8.33325C63 9.06963 62.403 9.66659 61.6667 9.66659H46.3333C45.597 9.66659 45 9.06963 45 8.33325V3.66659Z" fill="black"/>
<path fill-rule="evenodd" clip-rule="evenodd" d="M30.33 2.60789C32.5459 2.60799 34.677 3.45943 36.283 4.98623C36.4039 5.1041 36.5972 5.10261 36.7163 4.98289L37.8723 3.81623C37.9326 3.7555 37.9662 3.67325 37.9657 3.58767C37.9652 3.50209 37.9306 3.42024 37.8696 3.36023C33.6545 -0.67932 27.0047 -0.67932 22.7896 3.36023C22.7286 3.4202 22.6939 3.50202 22.6934 3.5876C22.6928 3.67318 22.7264 3.75546 22.7866 3.81623L23.943 4.98289C24.062 5.1028 24.2554 5.10428 24.3763 4.98623C25.9825 3.45933 28.1139 2.60789 30.33 2.60789ZM30.33 6.40356C31.5474 6.40349 32.7215 6.85602 33.624 7.67323C33.746 7.78921 33.9383 7.78669 34.0573 7.66756L35.212 6.50089C35.2728 6.4397 35.3065 6.35668 35.3056 6.27042C35.3047 6.18415 35.2693 6.10184 35.2073 6.04189C32.4591 3.48551 28.2032 3.48551 25.455 6.04189C25.3929 6.10184 25.3575 6.18419 25.3566 6.27049C25.3558 6.35678 25.3897 6.43979 25.4506 6.50089L26.605 7.66756C26.7239 7.78669 26.9162 7.78921 27.0383 7.67323C27.9402 6.85656 29.1133 6.40406 30.33 6.40356ZM32.643 8.95738C32.6447 9.04389 32.6107 9.12729 32.549 9.18789L30.5516 11.2036C30.4931 11.2628 30.4132 11.2961 30.33 11.2961C30.2467 11.2961 30.1668 11.2628 30.1083 11.2036L28.1106 9.18789C28.0489 9.12724 28.015 9.04381 28.0168 8.95731C28.0186 8.8708 28.0561 8.78888 28.1203 8.73089C29.3959 7.65201 31.2641 7.65201 32.5396 8.73089C32.6038 8.78893 32.6412 8.87087 32.643 8.95738Z" fill="black"/>
<path fill-rule="evenodd" clip-rule="evenodd" d="M16.6665 0.666504H15.6665C15.1142 0.666504 14.6665 1.11422 14.6665 1.6665V10.3332C14.6665 10.8855 15.1142 11.3332 15.6665 11.3332H16.6665C17.2188 11.3332 17.6665 10.8855 17.6665 10.3332V1.6665C17.6665 1.11422 17.2188 0.666504 16.6665 0.666504ZM10.9998 2.99984H11.9998C12.5521 2.99984 12.9998 3.44755 12.9998 3.99984V10.3332C12.9998 10.8855 12.5521 11.3332 11.9998 11.3332H10.9998C10.4476 11.3332 9.99985 10.8855 9.99985 10.3332V3.99984C9.99985 3.44755 10.4476 2.99984 10.9998 2.99984ZM7.33316 5.33317H6.33316C5.78088 5.33317 5.33316 5.78089 5.33316 6.33317V10.3332C5.33316 10.8855 5.78088 11.3332 6.33316 11.3332H7.33316C7.88545 11.3332 8.33316 10.8855 8.33316 10.3332V6.33317C8.33316 5.78089 7.88545 5.33317 7.33316 5.33317ZM2.6665 7.33317H1.6665C1.11422 7.33317 0.666504 7.78089 0.666504 8.33317V10.3332C0.666504 10.8855 1.11422 11.3332 1.6665 11.3332H2.6665C3.21879 11.3332 3.6665 10.8855 3.6665 10.3332V8.33317C3.6665 7.78089 3.21879 7.33317 2.6665 7.33317Z" fill="black"/>
</svg>
