<svg width="64" height="64" viewBox="0 0 64 64" fill="none" xmlns="http://www.w3.org/2000/svg">
<g clip-path="url(#clip0_9_3920)">
<rect width="64" height="64" rx="32" fill="#F0F0FC"/>
<path d="M54.1658 55.793C51.3786 51.012 47.0263 47.2867 41.8097 45.2168C44.4039 43.3153 46.3201 40.6641 47.287 37.639C48.2539 34.6139 48.2224 31.3681 47.1969 28.3615C46.1715 25.3549 44.2041 22.7398 41.5735 20.8867C38.9428 19.0335 35.7823 18.0364 32.5396 18.0364C29.2968 18.0364 26.1363 19.0335 23.5057 20.8867C20.875 22.7398 18.9077 25.3549 17.8822 28.3615C16.8568 31.3681 16.8253 34.6139 17.7921 37.639C18.759 40.6641 20.6753 43.3153 23.2694 45.2168C18.0528 47.2867 13.7006 51.012 10.9133 55.793C10.7406 56.0644 10.6255 56.367 10.5749 56.6827C10.5242 56.9985 10.539 57.321 10.6184 57.631C10.6978 57.9411 10.8402 58.2324 11.0371 58.4876C11.234 58.7428 11.4814 58.9567 11.7645 59.1166C12.0477 59.2765 12.3609 59.3791 12.6854 59.4183C13.01 59.4576 13.3393 59.4326 13.6538 59.345C13.9683 59.2574 14.2615 59.1088 14.5161 58.9082C14.7707 58.7076 14.9814 58.459 15.1357 58.1772C18.8194 51.9543 25.3247 48.2428 32.5396 48.2428C39.7544 48.2428 46.2598 51.9563 49.9434 58.1772C50.2779 58.7028 50.8083 59.0807 51.4227 59.231C52.037 59.3812 52.687 59.2922 53.2354 58.9825C53.7837 58.6729 54.1874 58.167 54.361 57.5718C54.5346 56.9765 54.4646 56.3387 54.1658 55.793ZM21.9684 33.1426C21.9684 31.0992 22.5884 29.1016 23.7499 27.4026C24.9115 25.7035 26.5625 24.3793 28.4942 23.5973C30.4258 22.8153 32.5513 22.6107 34.6019 23.0093C36.6525 23.408 38.5361 24.392 40.0145 25.8369C41.4929 27.2818 42.4998 29.1228 42.9076 31.127C43.3155 33.1311 43.1062 35.2085 42.3061 37.0964C41.506 38.9843 40.151 40.5979 38.4126 41.7331C36.6742 42.8684 34.6304 43.4743 32.5396 43.4743C29.7369 43.4712 27.05 42.3816 25.0682 40.4447C23.0864 38.5079 21.9716 35.8818 21.9684 33.1426Z" fill="#C3C3F5"/>
</g>
<rect x="0.5" y="0.5" width="63" height="63" rx="31.5" stroke="white"/>
<defs>
<clipPath id="clip0_9_3920">
<rect width="64" height="64" rx="32" fill="white"/>
</clipPath>
</defs>
</svg>
