<svg width="26" height="25" viewBox="0 0 26 25" fill="none" xmlns="http://www.w3.org/2000/svg">
<rect x="1" y="7.62939e-05" width="24" height="24" rx="3" fill="white" fill-opacity="0.01"/>
<rect x="1" y="7.62939e-05" width="24" height="24" rx="3" stroke="#E9E9E9"/>
<rect width="24" height="24" transform="translate(1 7.62939e-05)" fill="white" fill-opacity="0.01"/>
<path fill-rule="evenodd" clip-rule="evenodd" d="M10.2943 9.69807C10.2011 9.60615 10.1271 9.49662 10.0765 9.37585C10.026 9.25508 10 9.12548 10 8.99457C10 8.86366 10.026 8.73405 10.0765 8.61328C10.1271 8.49251 10.2011 8.38299 10.2943 8.29107C10.4833 8.1045 10.7382 7.99989 11.0038 7.99989C11.2694 7.99989 11.5243 8.1045 11.7133 8.29107L14.6783 11.2311C14.7805 11.3324 14.8616 11.453 14.917 11.5858C14.9723 11.7187 15.0008 11.8612 15.0008 12.0051C15.0008 12.149 14.9723 12.2915 14.917 12.4243C14.8616 12.5572 14.7805 12.6777 14.6783 12.7791L11.7233 15.7091C11.5342 15.8959 11.2791 16.0007 11.0133 16.0007C10.7475 16.0007 10.4924 15.8959 10.3033 15.7091C10.2101 15.6172 10.1361 15.5076 10.0855 15.3869C10.035 15.2661 10.009 15.1365 10.009 15.0056C10.009 14.8747 10.035 14.7451 10.0855 14.6243C10.1361 14.5035 10.2101 14.394 10.3033 14.3021L12.6213 12.0051L10.2943 9.69807Z" fill="#A5ADBA"/>
</svg>
