<svg width="20" height="21" viewBox="0 0 20 21" fill="none" xmlns="http://www.w3.org/2000/svg">
<path d="M8.134 16.6786C7.96926 16.6796 7.80596 16.6481 7.65345 16.586C7.50094 16.5239 7.36223 16.4324 7.24526 16.3167C7.12794 16.2007 7.03482 16.0626 6.97127 15.9106C6.90772 15.7585 6.875 15.5953 6.875 15.4306C6.875 15.2658 6.90772 15.1027 6.97127 14.9506C7.03482 14.7985 7.12794 14.6605 7.24526 14.5445L11.3885 10.4385L7.40799 6.30751C7.17485 6.07368 7.04399 5.75737 7.04399 5.42766C7.04399 5.09795 7.17485 4.78163 7.40799 4.5478C7.52435 4.43082 7.6628 4.33798 7.81533 4.27462C7.96787 4.21126 8.13148 4.17863 8.29673 4.17863C8.46197 4.17863 8.62558 4.21126 8.77812 4.27462C8.93065 4.33798 9.0691 4.43082 9.18546 4.5478L14.0172 9.5399C14.2465 9.7732 14.375 10.0868 14.375 10.4135C14.375 10.7402 14.2465 11.0538 14.0172 11.2871L9.01022 16.2792C8.89786 16.4002 8.76258 16.4978 8.61219 16.5663C8.46179 16.6349 8.29927 16.6731 8.134 16.6786Z" fill="#191F2A"/>
</svg>
