<svg width="14" height="14" viewBox="0 0 14 14" fill="none" xmlns="http://www.w3.org/2000/svg">
<path d="M5.6938 11.3751C5.57848 11.3758 5.46417 11.3537 5.35741 11.3103C5.25066 11.2668 5.15356 11.2027 5.07168 11.1218C4.98956 11.0405 4.92437 10.9439 4.87989 10.8375C4.8354 10.731 4.8125 10.6168 4.8125 10.5015C4.8125 10.3862 4.8354 10.272 4.87989 10.1655C4.92437 10.0591 4.98956 9.96243 5.07168 9.88122L7.97197 7.00702L5.18559 4.11534C5.0224 3.95165 4.93079 3.73024 4.93079 3.49944C4.93079 3.26864 5.0224 3.04722 5.18559 2.88354C5.26705 2.80165 5.36396 2.73666 5.47073 2.69231C5.57751 2.64796 5.69204 2.62512 5.80771 2.62512C5.92338 2.62512 6.03791 2.64796 6.14468 2.69231C6.25146 2.73666 6.34837 2.80165 6.42982 2.88354L9.81203 6.37801C9.97257 6.54131 10.0625 6.76087 10.0625 6.98954C10.0625 7.21821 9.97257 7.43777 9.81203 7.60108L6.30715 11.0955C6.2285 11.1802 6.13381 11.2485 6.02853 11.2965C5.92326 11.3445 5.80949 11.3712 5.6938 11.3751Z" fill="#0D0DCD"/>
</svg>
