<svg width="16" height="15" viewBox="0 0 16 15" fill="none" xmlns="http://www.w3.org/2000/svg">
<path d="M14.6667 3.32812H11.3333V1.60938C11.3333 1.13403 10.9609 0.75 10.5 0.75H5.5C5.03906 0.75 4.66667 1.13403 4.66667 1.60938V3.32812H1.33333C0.872396 3.32812 0.5 3.71216 0.5 4.1875V14.0703C0.5 14.3066 0.6875 14.5 0.916667 14.5H15.0833C15.3125 14.5 15.5 14.3066 15.5 14.0703V4.1875C15.5 3.71216 15.1276 3.32812 14.6667 3.32812ZM4.66667 12.459C4.66667 12.6362 4.52604 12.7812 4.35417 12.7812H3.3125C3.14062 12.7812 3 12.6362 3 12.459V11.3848C3 11.2075 3.14062 11.0625 3.3125 11.0625H4.35417C4.52604 11.0625 4.66667 11.2075 4.66667 11.3848V12.459ZM4.66667 9.02148C4.66667 9.19873 4.52604 9.34375 4.35417 9.34375H3.3125C3.14062 9.34375 3 9.19873 3 9.02148V7.94727C3 7.77002 3.14062 7.625 3.3125 7.625H4.35417C4.52604 7.625 4.66667 7.77002 4.66667 7.94727V9.02148ZM8.83333 12.459C8.83333 12.6362 8.69271 12.7812 8.52083 12.7812H7.47917C7.30729 12.7812 7.16667 12.6362 7.16667 12.459V11.3848C7.16667 11.2075 7.30729 11.0625 7.47917 11.0625H8.52083C8.69271 11.0625 8.83333 11.2075 8.83333 11.3848V12.459ZM8.83333 9.02148C8.83333 9.19873 8.69271 9.34375 8.52083 9.34375H7.47917C7.30729 9.34375 7.16667 9.19873 7.16667 9.02148V7.94727C7.16667 7.77002 7.30729 7.625 7.47917 7.625H8.52083C8.69271 7.625 8.83333 7.77002 8.83333 7.94727V9.02148ZM9.25 4.45605C9.25 4.54468 9.17969 4.61719 9.09375 4.61719H8.41667V5.31543C8.41667 5.40405 8.34635 5.47656 8.26042 5.47656H7.73958C7.65365 5.47656 7.58333 5.40405 7.58333 5.31543V4.61719H6.90625C6.82031 4.61719 6.75 4.54468 6.75 4.45605V3.91895C6.75 3.83032 6.82031 3.75781 6.90625 3.75781H7.58333V3.05957C7.58333 2.97095 7.65365 2.89844 7.73958 2.89844H8.26042C8.34635 2.89844 8.41667 2.97095 8.41667 3.05957V3.75781H9.09375C9.17969 3.75781 9.25 3.83032 9.25 3.91895V4.45605ZM13 12.459C13 12.6362 12.8594 12.7812 12.6875 12.7812H11.6458C11.474 12.7812 11.3333 12.6362 11.3333 12.459V11.3848C11.3333 11.2075 11.474 11.0625 11.6458 11.0625H12.6875C12.8594 11.0625 13 11.2075 13 11.3848V12.459ZM13 9.02148C13 9.19873 12.8594 9.34375 12.6875 9.34375H11.6458C11.474 9.34375 11.3333 9.19873 11.3333 9.02148V7.94727C11.3333 7.77002 11.474 7.625 11.6458 7.625H12.6875C12.8594 7.625 13 7.77002 13 7.94727V9.02148Z" fill="#0D0DCD"/>
</svg>
