<svg width="16" height="16" viewBox="0 0 16 16" fill="none" xmlns="http://www.w3.org/2000/svg">
<path d="M13.3333 5.0625H10.6667V3.6875C10.6667 3.30723 10.3688 3 10 3H6C5.63125 3 5.33333 3.30723 5.33333 3.6875V5.0625H2.66667C2.29792 5.0625 2 5.36973 2 5.75V13.6562C2 13.8453 2.15 14 2.33333 14H13.6667C13.85 14 14 13.8453 14 13.6562V5.75C14 5.36973 13.7021 5.0625 13.3333 5.0625ZM5.33333 12.3672C5.33333 12.509 5.22083 12.625 5.08333 12.625H4.25C4.1125 12.625 4 12.509 4 12.3672V11.5078C4 11.366 4.1125 11.25 4.25 11.25H5.08333C5.22083 11.25 5.33333 11.366 5.33333 11.5078V12.3672ZM5.33333 9.61719C5.33333 9.75898 5.22083 9.875 5.08333 9.875H4.25C4.1125 9.875 4 9.75898 4 9.61719V8.75781C4 8.61602 4.1125 8.5 4.25 8.5H5.08333C5.22083 8.5 5.33333 8.61602 5.33333 8.75781V9.61719ZM8.66667 12.3672C8.66667 12.509 8.55417 12.625 8.41667 12.625H7.58333C7.44583 12.625 7.33333 12.509 7.33333 12.3672V11.5078C7.33333 11.366 7.44583 11.25 7.58333 11.25H8.41667C8.55417 11.25 8.66667 11.366 8.66667 11.5078V12.3672ZM8.66667 9.61719C8.66667 9.75898 8.55417 9.875 8.41667 9.875H7.58333C7.44583 9.875 7.33333 9.75898 7.33333 9.61719V8.75781C7.33333 8.61602 7.44583 8.5 7.58333 8.5H8.41667C8.55417 8.5 8.66667 8.61602 8.66667 8.75781V9.61719ZM9 5.96484C9 6.03574 8.94375 6.09375 8.875 6.09375H8.33333V6.65234C8.33333 6.72324 8.27708 6.78125 8.20833 6.78125H7.79167C7.72292 6.78125 7.66667 6.72324 7.66667 6.65234V6.09375H7.125C7.05625 6.09375 7 6.03574 7 5.96484V5.53516C7 5.46426 7.05625 5.40625 7.125 5.40625H7.66667V4.84766C7.66667 4.77676 7.72292 4.71875 7.79167 4.71875H8.20833C8.27708 4.71875 8.33333 4.77676 8.33333 4.84766V5.40625H8.875C8.94375 5.40625 9 5.46426 9 5.53516V5.96484ZM12 12.3672C12 12.509 11.8875 12.625 11.75 12.625H10.9167C10.7792 12.625 10.6667 12.509 10.6667 12.3672V11.5078C10.6667 11.366 10.7792 11.25 10.9167 11.25H11.75C11.8875 11.25 12 11.366 12 11.5078V12.3672ZM12 9.61719C12 9.75898 11.8875 9.875 11.75 9.875H10.9167C10.7792 9.875 10.6667 9.75898 10.6667 9.61719V8.75781C10.6667 8.61602 10.7792 8.5 10.9167 8.5H11.75C11.8875 8.5 12 8.61602 12 8.75781V9.61719Z" fill="#F0F0FC"/>
</svg>
