<svg width="16" height="16" viewBox="0 0 16 16" fill="none" xmlns="http://www.w3.org/2000/svg">
<path d="M10.3773 7.34701C11.0736 6.93325 11.6506 6.34585 12.0519 5.64227C12.4532 4.93868 12.665 4.14298 12.6666 3.33301V2.66634H13.3333V1.33301H2.66663V2.66634H3.33329V3.33301C3.33491 4.14298 3.54671 4.93868 3.948 5.64227C4.34928 6.34585 4.9263 6.93325 5.62263 7.34701C5.85863 7.48567 5.99996 7.71034 5.99996 7.94701V8.05234C5.99996 8.28834 5.85863 8.51234 5.62263 8.65234C4.9263 9.0661 4.34928 9.65349 3.948 10.3571C3.54671 11.0607 3.33491 11.8564 3.33329 12.6663V13.333H2.66663V14.6663H13.3333V13.333H12.6666V12.6663C12.6656 11.8564 12.4541 11.0606 12.0529 10.3571C11.6517 9.65351 11.0745 9.06629 10.378 8.65301C10.1413 8.51301 9.99996 8.28834 9.99996 8.05234V7.94701C9.99996 7.71034 10.1413 7.48567 10.3773 7.34701ZM9.70063 9.80101C10.1975 10.0965 10.6091 10.5159 10.8953 11.0181C11.1814 11.5204 11.3324 12.0883 11.3333 12.6663V13.333H4.66663V12.6663C4.6675 12.0881 4.81848 11.52 5.10478 11.0176C5.39109 10.5152 5.80291 10.0958 6.29996 9.80034C6.94729 9.41834 7.33329 8.76434 7.33329 8.05234V7.94701C7.33329 7.23434 6.94663 6.57967 6.29929 6.19834C5.80247 5.90285 5.39084 5.48348 5.10466 4.98123C4.81848 4.47899 4.66755 3.91106 4.66663 3.33301V2.66634H11.3333V3.33301C11.3333 4.50634 10.708 5.60367 9.70063 6.19834C9.05329 6.57967 8.66663 7.23434 8.66663 7.94701V8.05234C8.66663 8.76434 9.05263 9.41834 9.70063 9.80101Z" fill="#C3C3F5"/>
</svg>
