<svg width="24" height="24" viewBox="0 0 24 24" fill="none" xmlns="http://www.w3.org/2000/svg">
<rect width="24" height="24" fill="white" fill-opacity="0.01"/>
<path d="M15.6771 17.1054C14.2073 18.222 12.3692 18.7378 10.5343 18.5486C8.69946 18.3595 7.00469 17.4795 5.79254 16.0865C4.58038 14.6934 3.94123 12.8913 4.00425 11.0443C4.06728 9.19722 4.82779 7.44303 6.13207 6.13621C7.43635 4.82939 9.18715 4.06741 11.0306 4.00426C12.8741 3.94111 14.6727 4.58151 16.063 5.79602C17.4533 7.01053 18.3317 8.70859 18.5204 10.547C18.7092 12.3854 18.1944 14.2271 17.08 15.6998L20.5834 19.2099C20.9712 19.5985 21.2848 19.9923 20.5834 20.6156C19.8819 21.2389 19.5682 21.0041 19.1805 20.6156L15.6771 17.1054ZM11.2791 16.5976C12.6831 16.5976 14.0297 16.0387 15.0225 15.044C16.0154 14.0492 16.5731 12.7 16.5731 11.2932C16.5731 9.88642 16.0154 8.53724 15.0225 7.54248C14.0297 6.54772 12.6831 5.98887 11.2791 5.98887C9.875 5.98887 8.52844 6.54772 7.53561 7.54248C6.54278 8.53724 5.98502 9.88642 5.98502 11.2932C5.98502 12.7 6.54278 14.0492 7.53561 15.044C8.52844 16.0387 9.875 16.5976 11.2791 16.5976Z" fill="#0D0DCD"/>
</svg>
