<svg width="16" height="16" viewBox="0 0 16 16" fill="none" xmlns="http://www.w3.org/2000/svg">
<path d="M13.3333 5.06252H10.6667V3.68752C10.6667 3.30724 10.3688 3.00002 10 3.00002H6C5.63125 3.00002 5.33333 3.30724 5.33333 3.68752V5.06252H2.66667C2.29792 5.06252 2 5.36974 2 5.75002V13.6563C2 13.8453 2.15 14 2.33333 14H13.6667C13.85 14 14 13.8453 14 13.6563V5.75002C14 5.36974 13.7021 5.06252 13.3333 5.06252ZM5.33333 12.3672C5.33333 12.509 5.22083 12.625 5.08333 12.625H4.25C4.1125 12.625 4 12.509 4 12.3672V11.5078C4 11.366 4.1125 11.25 4.25 11.25H5.08333C5.22083 11.25 5.33333 11.366 5.33333 11.5078V12.3672ZM5.33333 9.6172C5.33333 9.759 5.22083 9.87502 5.08333 9.87502H4.25C4.1125 9.87502 4 9.759 4 9.6172V8.75783C4 8.61603 4.1125 8.50002 4.25 8.50002H5.08333C5.22083 8.50002 5.33333 8.61603 5.33333 8.75783V9.6172ZM8.66667 12.3672C8.66667 12.509 8.55417 12.625 8.41667 12.625H7.58333C7.44583 12.625 7.33333 12.509 7.33333 12.3672V11.5078C7.33333 11.366 7.44583 11.25 7.58333 11.25H8.41667C8.55417 11.25 8.66667 11.366 8.66667 11.5078V12.3672ZM8.66667 9.6172C8.66667 9.759 8.55417 9.87502 8.41667 9.87502H7.58333C7.44583 9.87502 7.33333 9.759 7.33333 9.6172V8.75783C7.33333 8.61603 7.44583 8.50002 7.58333 8.50002H8.41667C8.55417 8.50002 8.66667 8.61603 8.66667 8.75783V9.6172ZM9 5.96486C9 6.03576 8.94375 6.09377 8.875 6.09377H8.33333V6.65236C8.33333 6.72326 8.27708 6.78127 8.20833 6.78127H7.79167C7.72292 6.78127 7.66667 6.72326 7.66667 6.65236V6.09377H7.125C7.05625 6.09377 7 6.03576 7 5.96486V5.53517C7 5.46427 7.05625 5.40627 7.125 5.40627H7.66667V4.84767C7.66667 4.77677 7.72292 4.71877 7.79167 4.71877H8.20833C8.27708 4.71877 8.33333 4.77677 8.33333 4.84767V5.40627H8.875C8.94375 5.40627 9 5.46427 9 5.53517V5.96486ZM12 12.3672C12 12.509 11.8875 12.625 11.75 12.625H10.9167C10.7792 12.625 10.6667 12.509 10.6667 12.3672V11.5078C10.6667 11.366 10.7792 11.25 10.9167 11.25H11.75C11.8875 11.25 12 11.366 12 11.5078V12.3672ZM12 9.6172C12 9.759 11.8875 9.87502 11.75 9.87502H10.9167C10.7792 9.87502 10.6667 9.759 10.6667 9.6172V8.75783C10.6667 8.61603 10.7792 8.50002 10.9167 8.50002H11.75C11.8875 8.50002 12 8.61603 12 8.75783V9.6172Z" fill="#3B4963"/>
</svg>
