<svg width="16" height="16" viewBox="0 0 16 16" fill="none" xmlns="http://www.w3.org/2000/svg">
<path d="M2 12.2C2 13.22 2.78 14 3.8 14H12.2C13.22 14 14 13.22 14 12.2V7.40002H2V12.2ZM12.2 3.20002H11V2.60002C11 2.24002 10.76 2.00002 10.4 2.00002C10.04 2.00002 9.8 2.24002 9.8 2.60002V3.20002H6.2V2.60002C6.2 2.24002 5.96 2.00002 5.6 2.00002C5.24 2.00002 5 2.24002 5 2.60002V3.20002H3.8C2.78 3.20002 2 3.98002 2 5.00002V6.20002H14V5.00002C14 3.98002 13.22 3.20002 12.2 3.20002Z" fill="#3B4963"/>
</svg>
