<svg width="16" height="16" viewBox="0 0 16 16" fill="none" xmlns="http://www.w3.org/2000/svg">
<path d="M1.33325 5.33333V4.16667C1.33325 3.59203 1.56153 3.04093 1.96785 2.6346C2.37418 2.22827 2.92528 2 3.49992 2H5.41925C5.81685 2.00017 6.19811 2.15819 6.47925 2.43933L7.49992 3.45933L5.77259 5.18667C5.67891 5.28046 5.55182 5.33322 5.41925 5.33333H1.33325ZM1.33325 6.33333V11.8333C1.33325 12.408 1.56153 12.9591 1.96785 13.3654C2.37418 13.7717 2.92528 14 3.49992 14H7.41059C7.35879 13.7816 7.33284 13.5578 7.33325 13.3333C7.33324 12.8802 7.48712 12.4404 7.76969 12.0862C8.05226 11.7319 8.44677 11.4841 8.88859 11.3833C8.67884 11.1642 8.5217 10.9002 8.42904 10.6114C8.33638 10.3225 8.31064 10.0164 8.35376 9.71612C8.39689 9.41586 8.50775 9.12934 8.67795 8.87825C8.84816 8.62716 9.07324 8.41808 9.33619 8.26682C9.59913 8.11557 9.89303 8.0261 10.1956 8.0052C10.4983 7.9843 10.8017 8.03251 11.0829 8.14618C11.3642 8.25986 11.6159 8.43601 11.819 8.66132C12.0221 8.88663 12.1713 9.15519 12.2553 9.44667C12.3779 9.25152 12.5396 9.08392 12.7303 8.95445C12.9209 8.82499 13.1364 8.73647 13.363 8.6945C13.5896 8.65252 13.8224 8.658 14.0468 8.71058C14.2712 8.76317 14.4822 8.86171 14.6666 9V5.83333C14.6666 5.5488 14.6105 5.26706 14.5017 5.00419C14.3928 4.74131 14.2332 4.50246 14.032 4.30127C13.8308 4.10007 13.5919 3.94048 13.3291 3.83159C13.0662 3.72271 12.7844 3.66667 12.4999 3.66667H8.70659L6.47992 5.894C6.34063 6.03329 6.17527 6.14378 5.99328 6.21916C5.81129 6.29454 5.61624 6.33333 5.41925 6.33333H1.33325ZM10.3333 11.3333C10.6869 11.3333 11.026 11.1929 11.2761 10.9428C11.5261 10.6928 11.6666 10.3536 11.6666 10C11.6666 9.64638 11.5261 9.30724 11.2761 9.05719C11.026 8.80714 10.6869 8.66667 10.3333 8.66667C9.97963 8.66667 9.64049 8.80714 9.39044 9.05719C9.14039 9.30724 8.99992 9.64638 8.99992 10C8.99992 10.3536 9.14039 10.6928 9.39044 10.9428C9.64049 11.1929 9.97963 11.3333 10.3333 11.3333ZM10.3333 15.3333C12.0446 15.3333 12.6666 14.32 12.6666 13.3333C12.6666 12.9797 12.5261 12.6406 12.2761 12.3905C12.026 12.1405 11.6869 12 11.3333 12H9.33325C8.97963 12 8.64049 12.1405 8.39044 12.3905C8.14039 12.6406 7.99992 12.9797 7.99992 13.3333C7.99992 14.32 8.62192 15.3333 10.3333 15.3333ZM13.0046 14.652C13.1086 14.6613 13.2181 14.6662 13.3333 14.6667C14.7999 14.6667 15.3333 13.856 15.3333 13.0667C15.3333 12.7838 15.2209 12.5125 15.0208 12.3124C14.8208 12.1124 14.5495 12 14.2666 12H12.8239C13.1406 12.3533 13.3333 12.8213 13.3333 13.3333C13.3333 13.7707 13.2373 14.2333 13.0046 14.652ZM14.6666 10.3333C14.6666 10.5985 14.5612 10.8529 14.3737 11.0404C14.1862 11.228 13.9318 11.3333 13.6666 11.3333C13.4014 11.3333 13.147 11.228 12.9595 11.0404C12.7719 10.8529 12.6666 10.5985 12.6666 10.3333C12.6666 10.0681 12.7719 9.81376 12.9595 9.62623C13.147 9.43869 13.4014 9.33333 13.6666 9.33333C13.9318 9.33333 14.1862 9.43869 14.3737 9.62623C14.5612 9.81376 14.6666 10.0681 14.6666 10.3333Z" fill="#3B4963"/>
</svg>
