<svg width="16" height="16" viewBox="0 0 16 16" fill="none" xmlns="http://www.w3.org/2000/svg">
<path d="M8.86612 2.09875L14.6221 12.0681C14.7099 12.2201 14.7561 12.3925 14.7561 12.5681C14.7561 12.7436 14.7099 12.9161 14.6221 13.0681C14.5344 13.2201 14.4081 13.3463 14.2561 13.4341C14.1041 13.5219 13.9317 13.5681 13.7561 13.5681H2.24412C2.06858 13.5681 1.89614 13.5219 1.74412 13.4341C1.59211 13.3463 1.46587 13.2201 1.37811 13.0681C1.29034 12.9161 1.24414 12.7436 1.24414 12.5681C1.24414 12.3925 1.29035 12.2201 1.37812 12.0681L7.13412 2.09875C7.51878 1.43209 8.48078 1.43209 8.86612 2.09875ZM8.00012 10.0001C7.8233 10.0001 7.65374 10.0703 7.52871 10.1954C7.40369 10.3204 7.33345 10.4899 7.33345 10.6668C7.33345 10.8436 7.40369 11.0131 7.52871 11.1382C7.65374 11.2632 7.8233 11.3334 8.00012 11.3334C8.17693 11.3334 8.3465 11.2632 8.47152 11.1382C8.59654 11.0131 8.66678 10.8436 8.66678 10.6668C8.66678 10.4899 8.59654 10.3204 8.47152 10.1954C8.3465 10.0703 8.17693 10.0001 8.00012 10.0001ZM8.00012 5.33342C7.83683 5.33344 7.67922 5.39339 7.5572 5.5019C7.43518 5.6104 7.35722 5.75992 7.33812 5.92209L7.33345 6.00009V8.66676C7.33364 8.83668 7.3987 9.00011 7.51535 9.12367C7.63199 9.24722 7.79142 9.32158 7.96105 9.33154C8.13067 9.3415 8.2977 9.28631 8.428 9.17725C8.55831 9.06819 8.64205 8.91349 8.66212 8.74475L8.66678 8.66676V6.00009C8.66678 5.82328 8.59654 5.65371 8.47152 5.52868C8.3465 5.40366 8.17693 5.33342 8.00012 5.33342Z" fill="#DD403A"/>
</svg>
