<svg width="16" height="16" viewBox="0 0 16 16" fill="none" xmlns="http://www.w3.org/2000/svg">
<path d="M2 8.00024C2 11.3137 4.6865 14.0002 8 14.0002C11.3135 14.0002 14 11.3137 14 8.00024C14 4.68674 11.3135 2.00024 8 2.00024C4.6865 2.00024 2 4.68674 2 8.00024ZM8.62499 5.00024C8.62499 5.166 8.55915 5.32497 8.44194 5.44218C8.32473 5.55939 8.16576 5.62524 8 5.62524C7.83424 5.62524 7.67526 5.55939 7.55805 5.44218C7.44084 5.32497 7.375 5.166 7.375 5.00024C7.375 4.83448 7.44084 4.67551 7.55805 4.5583C7.67526 4.44109 7.83424 4.37524 8 4.37524C8.16576 4.37524 8.32473 4.44109 8.44194 4.5583C8.55915 4.67551 8.62499 4.83448 8.62499 5.00024ZM8 6.50024C8.1326 6.50024 8.25978 6.55292 8.35355 6.64669C8.44732 6.74046 8.49999 6.86763 8.49999 7.00024V11.0002C8.49999 11.1328 8.44732 11.26 8.35355 11.3538C8.25978 11.4476 8.1326 11.5002 8 11.5002C7.86739 11.5002 7.74021 11.4476 7.64644 11.3538C7.55267 11.26 7.5 11.1328 7.5 11.0002V7.00024C7.5 6.86763 7.55267 6.74046 7.64644 6.64669C7.74021 6.55292 7.86739 6.50024 8 6.50024Z" fill="#6278A1"/>
</svg>
