<svg width="56" height="56" viewBox="0 0 56 56" fill="none" xmlns="http://www.w3.org/2000/svg">
<path fill-rule="evenodd" clip-rule="evenodd" d="M20.8628 20.8802C21.097 20.6458 21.4146 20.5142 21.7458 20.5142C22.077 20.5142 22.3946 20.6458 22.6288 20.8802L27.9907 26.2475L33.3526 20.8802C33.4678 20.7608 33.6057 20.6656 33.758 20.6C33.9104 20.5345 34.0743 20.5 34.2402 20.4986C34.406 20.4971 34.5705 20.5288 34.724 20.5916C34.8775 20.6545 35.0169 20.7473 35.1342 20.8647C35.2515 20.9821 35.3442 21.1217 35.407 21.2754C35.4698 21.429 35.5014 21.5936 35.5 21.7596C35.4985 21.9257 35.4641 22.0897 35.3986 22.2422C35.3331 22.3948 35.238 22.5327 35.1187 22.6481L29.7568 28.0154L35.1187 33.3827C35.3462 33.6185 35.4721 33.9343 35.4693 34.2621C35.4664 34.5899 35.3351 34.9035 35.1035 35.1353C34.8719 35.3671 34.5587 35.4986 34.2312 35.5014C33.9037 35.5043 33.5882 35.3782 33.3526 35.1505L27.9907 29.7832L22.6288 35.1505C22.3933 35.3782 22.0778 35.5043 21.7503 35.5014C21.4228 35.4986 21.1095 35.3671 20.878 35.1353C20.6464 34.9035 20.515 34.5899 20.5122 34.2621C20.5094 33.9343 20.6352 33.6185 20.8628 33.3827L26.2247 28.0154L20.8628 22.6481C20.6286 22.4136 20.4971 22.0957 20.4971 21.7641C20.4971 21.4326 20.6286 21.1147 20.8628 20.8802Z" fill="#0D0DCD"/>
</svg>
